<?xml version="1.0" standalone="no"?>
<!DOCTYPE svg PUBLIC "-//W3C//DTD SVG 20010904//EN"
 "http://www.w3.org/TR/2001/REC-SVG-20010904/DTD/svg10.dtd">
<svg version="1.0" xmlns="http://www.w3.org/2000/svg"
 width="1920.000000pt" height="1280.000000pt" viewBox="0 0 1920.000000 1280.000000"
 preserveAspectRatio="xMidYMid meet">
<metadata>
Created by potrace 1.13, written by Peter Selinger 2001-2015
</metadata>
<g transform="translate(0.000000,1280.000000) scale(0.100000,-0.100000)"
fill="#000000" stroke="none">
<path d="M0 9518 c0 -1886 4 -3277 9 -3269 17 27 35 -31 34 -114 0 -105 -3
-137 -15 -152 -5 -7 -7 -21 -3 -33 5 -14 2 -20 -9 -20 -19 0 -19 0 -2 -36 8
-16 18 -46 21 -67 6 -29 4 -37 -8 -37 -10 0 -14 -9 -13 -25 1 -25 2 -25 89
-25 76 0 87 2 87 18 0 9 2 50 4 89 3 40 1 75 -4 78 -5 3 -9 31 -9 63 -1 76 -9
274 -11 287 -7 32 1 41 32 37 31 -3 45 9 220 185 103 103 254 247 336 318 82
72 148 133 145 138 -2 4 3 7 12 7 9 0 15 6 12 13 -2 7 -19 11 -42 10 l-39 -2
26 17 c14 9 23 23 21 30 -3 6 0 12 6 12 6 0 11 -4 11 -10 0 -5 7 -10 15 -10 7
0 18 -8 24 -17 9 -17 12 -16 38 10 16 15 33 27 39 27 18 0 112 106 116 130 3
22 8 25 40 25 24 0 44 7 56 20 33 35 265 201 324 234 55 29 312 244 500 418
50 46 123 107 162 136 39 29 107 80 150 113 44 32 116 86 160 119 45 33 117
82 161 109 44 27 130 82 190 121 61 39 151 93 200 120 50 27 133 73 185 103
104 60 206 112 315 162 188 86 355 159 405 175 30 10 99 35 152 56 291 115
708 222 909 234 26 1 71 8 100 16 30 7 58 12 63 10 17 -4 146 21 142 27 -2 4
6 8 17 8 29 2 188 21 312 37 55 7 120 12 145 11 25 -1 140 -3 255 -3 208 -1
516 -30 557 -52 23 -12 31 -11 23 1 -8 13 -16 14 163 -21 86 -17 176 -39 199
-50 23 -10 50 -19 60 -19 11 0 23 -4 29 -9 5 -5 27 -13 48 -17 30 -5 37 -4 31
6 -5 8 -3 11 6 8 8 -3 13 -11 11 -18 -3 -11 0 -11 12 -1 8 7 21 9 28 5 18 -11
299 -104 315 -104 7 0 13 -4 13 -10 0 -5 20 -15 45 -21 25 -6 42 -16 39 -21
-4 -6 1 -8 12 -4 24 7 103 -29 83 -37 -8 -4 -1 -3 15 0 19 4 27 2 22 -5 -4 -6
2 -8 16 -4 12 3 19 1 15 -5 -3 -5 14 -15 39 -21 24 -7 65 -22 89 -33 25 -12
48 -19 51 -17 6 7 -187 96 -268 124 -38 12 -78 30 -90 38 -12 9 -32 16 -43 16
-12 0 -25 4 -31 9 -5 5 -27 14 -49 21 -22 7 -53 18 -70 25 -16 7 -47 16 -67
20 -68 11 -40 23 45 18 98 -5 253 -26 397 -54 95 -19 365 -84 399 -97 9 -3 12
-1 8 5 -5 7 0 9 14 6 12 -3 16 -9 10 -12 -15 -10 153 -63 175 -55 12 4 15 3 7
-3 -16 -11 141 -68 158 -57 7 4 9 3 6 -3 -6 -9 104 -50 348 -130 107 -35 447
-152 550 -189 55 -19 111 -39 125 -44 30 -9 466 -167 494 -179 13 -5 58 5 128
27 60 19 111 32 114 29 10 -10 -8 -57 -22 -57 -8 0 -14 -6 -14 -14 0 -8 -5
-16 -12 -18 -8 -3 -6 -7 5 -11 9 -3 16 -3 16 1 -3 17 2 32 10 32 5 0 8 -8 7
-17 0 -11 6 -18 14 -17 9 1 16 -7 16 -17 0 -11 -7 -19 -16 -20 -9 0 -7 -4 7
-9 22 -9 150 20 138 32 -3 3 7 3 22 1 23 -4 25 -2 13 7 -13 10 -12 11 3 6 10
-3 31 -6 46 -6 20 0 31 -8 41 -27 8 -16 16 -30 17 -32 1 -2 9 2 18 9 10 9 15
9 15 1 0 -7 10 -9 28 -5 25 7 26 6 12 -11 -14 -17 -14 -17 7 -7 12 7 29 9 37
6 10 -4 16 -1 16 7 0 7 3 9 7 6 3 -4 12 -2 19 4 8 6 25 8 41 4 21 -5 24 -8 12
-16 -9 -5 -10 -9 -2 -9 7 0 16 6 20 14 12 21 44 24 77 8 40 -20 77 -22 83 -6
6 16 43 19 43 4 0 -5 -4 -10 -10 -10 -5 0 -7 -7 -4 -15 4 -9 0 -15 -10 -15
-22 0 -20 -17 2 -23 16 -4 16 -5 0 -6 -11 -1 -15 -6 -12 -16 4 -8 1 -15 -5
-15 -6 0 -11 14 -11 31 0 16 -4 28 -8 25 -13 -8 -1 -66 13 -66 7 0 19 -2 27
-3 7 -2 10 -2 6 0 -14 8 -8 23 6 17 8 -3 23 5 35 17 21 22 21 22 35 3 8 -10
17 -17 19 -14 12 12 16 56 7 70 -9 13 -12 13 -23 0 -13 -16 -57 -25 -57 -11 0
4 8 15 19 25 14 13 28 15 59 10 38 -6 40 -8 31 -31 -12 -32 -13 -30 16 -35 14
-3 30 1 36 8 11 14 10 15 -13 18 -7 0 -14 10 -16 20 -4 17 1 18 46 12 36 -5
51 -3 55 6 3 11 9 10 26 0 12 -7 32 -10 43 -6 14 4 18 3 13 -6 -5 -8 3 -9 29
-5 20 4 42 3 49 -2 16 -13 66 -11 75 3 12 19 37 22 57 8 12 -9 32 -12 55 -9
29 4 31 4 13 -4 -30 -13 -30 -31 0 -24 33 8 45 21 52 54 6 25 8 27 21 15 8 -8
14 -19 14 -25 0 -13 45 -25 59 -16 7 3 8 0 5 -9 -5 -13 2 -16 32 -17 60 -1 98
-9 106 -22 6 -9 8 -9 8 1 0 23 41 12 70 -19 23 -26 33 -31 57 -25 81 18 84 18
90 -4 4 -16 8 -18 14 -8 5 7 14 13 21 13 7 1 12 6 10 13 -3 16 50 16 66 0 7
-7 12 -8 12 -3 0 6 4 4 9 -4 6 -9 5 -21 -2 -32 -9 -14 -9 -21 0 -30 9 -9 15
-1 24 30 13 42 28 55 30 24 1 -12 4 -10 9 7 6 18 8 20 9 7 1 -20 31 -77 41
-77 3 0 10 10 15 23 9 19 16 22 55 19 42 -3 44 -2 25 11 -28 21 -12 32 24 18
22 -10 35 -10 50 -2 27 15 121 23 121 10 0 -5 -24 -9 -52 -9 -43 -1 -49 -3
-35 -11 23 -13 84 -3 104 17 16 16 9 34 -13 34 -8 0 -14 5 -14 10 0 6 8 10 18
8 12 -2 18 5 20 25 2 15 -1 27 -7 27 -6 0 -11 -5 -11 -12 0 -9 -3 -9 -11 -1
-14 14 -4 44 12 41 22 -5 21 22 -2 30 -18 7 -19 10 -6 15 9 3 19 2 22 -3 4 -6
20 -10 36 -10 17 0 37 -7 46 -15 8 -8 19 -12 25 -9 6 4 8 -2 6 -12 -2 -11 -13
-20 -26 -22 -12 -2 -22 -8 -22 -13 0 -5 -11 -14 -25 -19 -18 -7 -23 -14 -18
-27 4 -10 8 -12 11 -5 2 7 18 12 36 12 18 0 36 4 42 9 5 4 21 11 35 15 22 5
28 2 34 -17 l7 -22 8 25 c7 21 15 12 11 -12 0 -5 4 -8 9 -8 6 0 10 5 10 10 0
6 5 10 10 10 6 0 10 -7 10 -15 0 -9 9 -15 22 -15 19 0 20 1 5 18 -8 9 -15 22
-15 27 1 12 -69 26 -93 19 -22 -6 -48 24 -30 36 8 4 10 13 7 19 -4 6 -1 11 8
11 8 0 19 -6 23 -12 12 -19 32 -22 156 -18 64 2 77 5 77 19 1 14 2 14 11 -1 8
-14 23 -18 69 -18 60 0 87 13 50 25 -13 4 -20 15 -20 31 0 24 2 25 45 18 30
-4 50 -2 60 6 11 9 15 9 15 1 0 -6 -7 -14 -15 -17 -8 -4 -15 -12 -15 -20 0 -8
-7 -14 -15 -14 -8 0 -15 -5 -15 -11 0 -12 43 -1 48 12 2 5 16 7 30 4 15 -3 22
-3 15 1 -7 3 -9 18 -6 38 4 28 2 34 -16 39 -12 3 -21 10 -21 15 0 6 9 6 25 -1
15 -7 25 -20 25 -33 0 -12 7 -25 16 -28 13 -5 14 -9 5 -20 -9 -11 -6 -15 13
-18 21 -4 23 -1 22 26 -1 23 4 31 19 34 43 7 51 12 35 22 -13 8 -13 10 1 10 9
0 22 -11 29 -25 16 -29 25 -31 39 -7 9 16 11 16 24 -2 14 -19 15 -19 28 2 14
22 49 31 49 12 0 -5 -4 -10 -9 -10 -5 0 -7 -9 -4 -20 4 -14 0 -20 -11 -20 -9
0 -16 -8 -17 -17 0 -13 -3 -11 -10 7 -10 25 -11 25 -25 5 -40 -57 -48 -65 -61
-65 -8 0 -12 4 -9 9 3 5 -3 11 -14 14 -11 3 -23 1 -26 -4 -3 -5 -1 -9 4 -9 9
0 25 -36 23 -51 0 -4 11 -10 24 -13 34 -9 32 -26 -2 -26 -28 0 -71 20 -45 20
6 0 12 5 12 11 0 6 -9 9 -19 6 -12 -3 -22 1 -25 10 -3 8 0 13 7 11 17 -4 20 3
12 25 -8 20 -25 23 -25 3 0 -8 -8 -17 -17 -20 -15 -6 -15 -8 -3 -16 8 -5 11
-13 6 -17 -5 -4 -11 -2 -13 5 -3 6 -20 12 -38 12 -18 0 -35 -6 -38 -12 -3 -10
-9 -10 -26 0 -17 10 -21 10 -19 0 2 -7 -4 -13 -12 -13 -8 0 -14 8 -14 18 2 23
-27 22 -53 -3 -17 -15 -23 -17 -32 -6 -6 7 -8 17 -4 22 4 5 -6 -3 -22 -18 -28
-27 -28 -28 -10 -48 17 -18 20 -19 36 -4 12 11 19 12 24 4 6 -9 10 -9 16 1 7
11 9 10 9 -3 0 -21 32 -31 70 -23 42 9 72 -2 65 -25 -5 -14 1 -19 32 -22 21
-3 44 -3 51 0 25 9 -10 21 -41 15 -23 -5 -29 -3 -25 8 6 17 73 17 133 0 32 -9
41 -8 48 4 8 15 37 21 37 8 -1 -21 -31 -45 -50 -40 -11 3 -23 1 -26 -4 -3 -5
4 -9 15 -9 10 0 21 -6 24 -12 3 -9 11 -7 28 8 13 11 49 33 79 49 60 31 102 65
81 65 -7 0 -9 5 -5 11 5 8 9 7 14 -2 6 -9 16 -8 47 6 21 10 40 17 42 16 2 -2
8 4 13 12 4 9 34 30 66 48 31 18 60 37 63 41 3 5 30 22 60 38 30 16 53 34 51
40 -1 6 2 9 8 5 5 -3 36 11 67 31 57 36 190 116 225 135 12 7 18 6 18 -1 0 -6
-8 -14 -17 -17 -10 -4 -20 -10 -23 -14 -6 -8 -326 -208 -346 -216 -8 -3 -14
-12 -14 -20 0 -8 -4 -11 -10 -8 -6 3 -10 1 -10 -4 0 -6 -9 -11 -21 -11 -11 0
-17 -4 -14 -10 3 -5 0 -7 -8 -4 -7 2 -36 -11 -63 -30 -27 -19 -75 -49 -106
-67 -31 -18 -59 -41 -61 -51 -3 -10 -10 -18 -17 -18 -6 0 -8 6 -4 13 4 6 3 9
-1 4 -5 -4 -9 -15 -10 -25 -1 -16 8 -13 61 17 39 23 58 39 50 44 -6 5 -1 5 12
2 13 -4 29 -1 37 5 18 15 20 34 3 24 -7 -5 -8 -3 -4 5 5 7 15 10 23 7 19 -8
58 13 165 86 48 33 102 68 120 77 89 46 189 116 180 126 -4 5 -2 5 4 2 13 -7
56 14 190 95 98 59 129 74 119 58 -3 -6 -12 -10 -20 -10 -7 0 -15 -3 -17 -7
-3 -9 -84 -63 -93 -63 -3 0 -36 -22 -75 -50 -39 -27 -72 -50 -75 -50 -8 0
-109 -62 -120 -74 -5 -6 -26 -19 -45 -29 -19 -9 -55 -31 -80 -47 -25 -16 -61
-37 -80 -47 -19 -9 -41 -23 -48 -30 -7 -7 -20 -13 -29 -13 -13 0 -13 -2 -2
-16 12 -15 11 -16 -8 -10 -12 4 -24 2 -28 -4 -4 -6 -18 -15 -31 -20 -28 -11
-31 -25 -7 -34 11 -5 32 4 58 21 22 16 60 38 85 50 25 12 67 37 95 57 27 20
56 36 62 36 7 0 13 5 13 10 0 6 4 10 10 10 5 0 29 13 52 29 24 15 76 50 116
76 55 36 71 50 60 57 -9 6 -6 7 9 3 20 -6 31 -1 118 52 131 79 173 103 190
109 19 6 -34 -30 -165 -115 -30 -19 -57 -38 -60 -41 -3 -4 -12 -10 -20 -13 -8
-4 -36 -19 -61 -35 -26 -15 -73 -42 -105 -61 -33 -18 -80 -49 -107 -67 -26
-19 -50 -34 -54 -34 -10 0 -105 -62 -128 -83 -11 -11 -33 -24 -48 -29 -24 -9
-26 -12 -15 -26 11 -13 10 -15 -9 -10 -16 4 -20 2 -16 -8 6 -17 -9 -18 -26 -1
-11 10 -12 8 -6 -11 6 -21 4 -23 -17 -18 -19 6 -20 5 -6 -4 13 -8 35 1 105 41
48 28 94 56 101 61 20 17 122 66 122 59 -1 -9 -77 -61 -90 -61 -7 0 -10 -7 -6
-16 5 -12 1 -14 -16 -8 -16 5 -20 3 -15 -9 3 -9 -1 -18 -9 -21 -8 -3 -12 -1
-9 4 3 5 -8 2 -24 -8 -17 -9 -31 -19 -31 -22 0 -15 56 0 97 27 27 17 84 50
128 73 44 24 87 48 95 55 8 6 49 31 90 55 41 24 100 61 130 81 31 20 89 57
130 81 41 25 128 77 193 117 66 40 121 71 123 68 4 -4 -28 -25 -206 -138 -41
-26 -79 -51 -85 -56 -5 -4 -21 -14 -35 -21 -14 -6 -52 -30 -85 -51 -33 -22
-80 -50 -105 -64 -41 -22 -96 -57 -288 -180 -39 -25 -59 -43 -52 -47 17 -11
-4 -21 -27 -14 -15 5 -15 4 -3 -5 10 -7 11 -11 3 -11 -7 0 -13 -4 -13 -9 0
-13 60 18 66 34 3 7 17 16 30 19 14 4 22 11 19 16 -3 5 1 7 9 4 8 -3 34 7 58
22 23 15 68 41 98 57 30 17 66 38 79 49 13 10 28 18 33 18 5 0 49 27 97 60 49
33 91 60 95 60 6 0 87 50 96 60 3 3 66 41 140 84 74 44 146 86 160 94 23 14
24 14 10 0 -8 -9 -51 -38 -95 -65 -44 -27 -107 -67 -140 -89 -33 -21 -76 -47
-95 -57 -19 -11 -49 -30 -67 -43 -17 -13 -35 -24 -39 -24 -4 0 -24 -11 -43
-23 -20 -13 -96 -61 -168 -107 -73 -46 -133 -88 -133 -92 0 -5 -5 -6 -12 -2
-7 4 -8 3 -4 -4 4 -6 14 -8 24 -5 15 6 15 5 3 -11 -10 -12 -17 -14 -25 -6 -5
5 -16 10 -24 10 -12 0 -12 -2 -1 -16 12 -15 11 -16 -11 -10 -18 5 -21 5 -10
-3 8 -5 11 -13 7 -17 -3 -4 -12 -2 -20 4 -14 12 -58 -5 -87 -34 -13 -13 -13
-14 5 -8 11 4 25 10 30 14 6 4 21 11 35 14 24 7 24 6 6 -8 -31 -25 -11 -19 44
14 28 16 55 30 59 30 5 0 14 6 20 14 9 11 9 15 -1 20 -7 3 -2 3 11 0 17 -5 21
-3 16 6 -5 8 -4 11 3 6 6 -3 61 24 124 60 62 36 127 74 143 84 17 9 68 42 115
72 47 30 136 86 198 124 100 61 159 97 367 223 28 17 64 38 80 48 17 10 32 21
33 26 2 4 9 7 16 7 8 0 25 10 40 21 15 12 29 19 31 17 3 -2 -20 -20 -51 -39
-30 -19 -104 -65 -165 -104 -108 -70 -288 -183 -377 -239 -26 -16 -70 -44 -99
-63 -28 -18 -54 -33 -56 -33 -6 0 -121 -70 -222 -135 -44 -28 -110 -71 -147
-94 -41 -27 -65 -48 -62 -56 3 -7 -4 -18 -15 -25 -14 -7 -21 -7 -21 0 0 5 -4
10 -9 10 -6 0 -9 -9 -8 -19 1 -18 6 -17 59 12 35 18 57 36 54 44 -3 7 1 10 9
7 8 -3 58 21 112 54 161 97 273 162 279 162 3 0 23 13 43 28 20 15 92 61 161
102 69 41 139 84 155 96 17 11 37 24 45 28 18 8 73 42 275 168 85 53 164 99
177 103 13 4 -11 -14 -52 -40 -41 -25 -112 -70 -157 -98 -45 -29 -133 -83
-195 -121 -62 -38 -149 -93 -194 -123 -44 -29 -85 -53 -91 -53 -6 0 -13 -4
-15 -8 -2 -7 -145 -97 -313 -197 -18 -12 -42 -28 -53 -38 -10 -9 -24 -17 -30
-17 -7 0 -12 -4 -12 -10 0 -5 -6 -10 -13 -10 -7 0 -23 -7 -36 -16 -18 -13 -20
-18 -10 -26 10 -7 6 -8 -12 -5 -15 2 -34 -2 -43 -8 -14 -11 -14 -14 -2 -24 12
-10 20 -9 38 2 13 8 39 24 58 34 35 19 121 70 285 169 50 30 99 59 110 64 11
6 39 23 62 38 54 35 185 115 198 122 25 12 256 157 322 201 39 27 75 49 78 49
4 0 34 16 66 37 33 20 61 34 63 32 2 -2 -40 -31 -93 -63 -53 -32 -132 -82
-176 -111 -44 -28 -138 -87 -208 -131 -70 -43 -140 -87 -155 -96 -15 -10 -39
-24 -55 -33 -29 -17 -199 -125 -207 -132 -10 -9 26 -22 44 -17 11 4 51 25 90
49 39 23 109 65 156 92 120 70 191 113 222 134 45 31 100 60 94 50 -4 -5 -34
-27 -69 -47 -34 -21 -63 -42 -65 -46 -2 -4 -8 -8 -14 -8 -6 0 -30 -13 -55 -30
-24 -16 -46 -30 -49 -30 -3 0 -10 -5 -17 -10 -7 -6 -59 -40 -117 -76 -110 -69
-164 -111 -103 -80 22 11 33 12 35 4 3 -7 10 -8 17 -4 7 5 10 14 7 22 -7 17 6
18 23 2 11 -11 13 -10 9 2 -4 11 2 15 20 17 13 0 27 5 31 10 3 4 22 17 41 27
73 40 286 167 401 240 33 21 62 36 65 34 2 -3 -42 -34 -98 -69 -263 -163 -381
-245 -322 -222 11 4 15 3 11 -4 -5 -7 0 -9 13 -6 11 3 20 9 20 14 0 5 6 9 13
9 11 0 157 82 252 141 17 10 51 30 76 43 26 14 53 31 60 38 25 24 153 97 159
91 3 -3 1 -8 -5 -10 -9 -3 -157 -95 -370 -228 -52 -33 -95 -63 -95 -67 0 -4 7
-5 15 -2 8 4 15 1 15 -5 0 -14 46 9 189 94 58 34 123 72 144 84 21 12 49 29
63 37 13 9 24 12 24 7 0 -5 -11 -15 -25 -21 -13 -6 -70 -42 -127 -79 -112 -74
-133 -87 -163 -102 -39 -20 -55 -38 -49 -55 7 -18 24 -22 24 -6 0 6 -5 10 -11
10 -5 0 -7 5 -3 11 4 7 9 8 17 0 12 -12 8 -14 184 88 67 39 124 71 127 71 4 0
38 21 76 47 39 25 73 44 75 41 3 -3 -23 -22 -57 -43 -35 -21 -98 -62 -141 -91
-68 -45 -75 -52 -55 -57 27 -7 156 56 233 114 29 21 57 39 64 39 14 0 47 67
38 77 -4 3 -21 -3 -37 -16 -17 -12 -30 -19 -30 -16 0 12 36 43 67 59 28 14 63
60 63 81 0 4 -15 4 -32 0 -31 -7 -32 -6 -13 9 11 8 25 16 31 16 12 0 43 31 43
43 0 4 14 37 30 72 17 36 31 67 31 70 0 3 14 35 31 72 17 38 34 77 39 88 19
46 35 91 36 102 1 7 13 36 27 65 108 230 147 548 107 863 -12 93 -12 95 4 95
41 0 108 -102 121 -185 4 -22 8 -110 10 -195 2 -85 6 -198 10 -250 3 -52 8
-133 11 -180 2 -47 11 -191 19 -320 22 -357 24 -384 31 -535 3 -77 10 -144 14
-148 4 -5 5 -29 2 -54 -3 -32 -1 -48 9 -54 11 -7 11 -9 1 -9 -7 0 -10 -5 -7
-10 4 -6 8 -27 10 -47 3 -38 24 -60 37 -40 5 8 9 6 14 -6 8 -21 24 -22 24 -2
0 8 5 15 10 15 6 0 10 -9 10 -20 0 -11 5 -20 10 -20 6 0 10 5 10 10 0 17 21
11 53 -16 26 -22 38 -25 77 -21 25 3 37 3 27 0 -14 -4 -18 -12 -14 -29 5 -30
-12 -44 -20 -15 -3 12 -12 21 -20 21 -9 0 -12 -6 -8 -19 7 -21 -14 -34 -36
-20 -11 7 -10 11 6 23 19 15 19 15 -7 16 -15 0 -30 -5 -33 -11 -4 -6 -13 -8
-21 -5 -7 3 -16 1 -19 -4 -11 -18 -24 -11 -31 15 -6 25 -7 25 -26 8 -17 -15
-21 -15 -28 -3 -6 8 -10 11 -11 5 -4 -29 1 -241 7 -315 4 -47 7 -115 7 -152 0
-38 4 -68 9 -68 5 0 7 -4 4 -8 -9 -15 -8 -182 4 -402 14 -269 22 -638 14 -663
-13 -40 -19 1 -25 151 l-6 157 0 -173 c0 -95 -3 -175 -6 -178 -7 -7 -14 151
-32 696 -14 428 -44 1160 -65 1620 -5 113 -15 330 -21 483 -7 152 -15 277 -19
277 -13 0 -25 -109 -18 -175 4 -38 12 -155 18 -260 7 -104 13 -203 15 -220 4
-35 11 -164 20 -350 3 -71 8 -148 10 -170 2 -22 7 -110 10 -195 3 -85 8 -200
10 -255 3 -55 12 -309 21 -565 32 -957 32 -950 13 -950 -5 0 -10 39 -10 88 -1
48 -5 152 -9 232 -5 105 -6 76 -3 -102 4 -178 2 -248 -6 -248 -7 0 -11 41 -11
128 0 195 -40 1269 -80 2167 -35 778 -33 747 -43 685 -2 -14 -10 -41 -19 -60
-23 -55 -64 -169 -86 -240 -11 -36 -40 -108 -65 -160 -60 -128 -117 -256 -117
-265 0 -4 -16 -41 -35 -82 -19 -41 -35 -77 -35 -79 0 -2 -15 -27 -33 -56 -19
-29 -60 -105 -92 -168 -33 -63 -92 -170 -132 -237 -40 -68 -73 -125 -73 -128
0 -6 -113 -183 -195 -306 -5 -9 -32 -50 -60 -93 -61 -94 -139 -203 -167 -234
-12 -12 -18 -22 -14 -22 4 0 -3 -13 -16 -29 -12 -15 -30 -38 -38 -51 -16 -24
-32 -45 -78 -100 -16 -19 -51 -65 -78 -101 -48 -64 -162 -209 -173 -219 -4 -3
-22 -25 -41 -50 -48 -62 -50 -65 -92 -110 -21 -22 -38 -42 -38 -45 0 -5 -39
-51 -68 -81 -7 -8 -10 -14 -5 -14 4 0 2 -4 -4 -8 -19 -12 117 -82 160 -82 45
0 68 9 61 24 -3 6 1 3 10 -8 16 -19 -12 -17 626 -40 85 -3 173 -6 195 -7 l40
-2 -40 -7 -40 -7 53 -2 c30 0 51 3 48 8 -5 8 47 8 169 1 l30 -2 -30 -8 c-24
-6 -19 -8 30 -9 43 -1 56 -4 45 -11 -21 -13 -3 -13 22 1 24 13 40 -3 31 -30
-3 -12 -2 -12 7 2 6 9 16 17 23 17 7 0 6 -4 -3 -10 -8 -5 -11 -12 -7 -16 3 -4
13 -2 21 5 11 9 15 8 20 -5 4 -9 4 -19 1 -22 -3 -3 -5 0 -5 7 0 8 -7 10 -22 5
-13 -4 -31 -7 -41 -8 -9 -1 -17 -5 -17 -11 -1 -10 81 -25 134 -25 38 1 29 -10
-10 -11 -55 -2 -84 -11 -84 -25 0 -8 7 -14 17 -14 13 0 12 -3 -5 -19 -22 -18
-29 -40 -14 -42 4 0 43 -1 86 -2 53 -2 81 -6 84 -15 2 -6 8 -12 13 -12 6 0 7
4 4 10 -3 6 0 10 7 10 7 0 22 3 33 6 15 4 39 -9 84 -45 35 -28 69 -51 75 -51
6 0 4 -5 -4 -10 -12 -8 -10 -10 9 -10 16 0 21 -4 17 -15 -4 -11 2 -15 22 -16
15 -1 31 -1 35 0 5 1 7 -4 4 -11 -2 -7 12 -23 32 -35 l36 -23 -28 0 c-16 0
-26 -4 -22 -10 3 -5 22 -10 41 -10 32 0 64 -18 64 -35 0 -11 28 -35 40 -35 12
0 41 -25 40 -35 0 -3 7 -17 16 -31 12 -18 24 -24 43 -22 20 2 25 -1 23 -14 -2
-12 13 -28 45 -48 33 -21 41 -30 27 -31 -100 -5 -122 -4 -119 2 3 4 -4 9 -15
12 -29 8 -24 -5 12 -30 25 -17 35 -20 51 -11 17 9 19 8 14 -6 -5 -11 4 -21 33
-36 39 -20 60 -40 41 -40 -5 0 -11 5 -13 11 -2 7 -12 7 -28 1 l-25 -10 30 -12
c21 -8 26 -13 16 -19 -8 -5 5 -11 36 -15 26 -3 55 -11 63 -17 15 -11 -12 -7
-65 8 -16 4 -18 3 -8 -8 7 -7 21 -14 31 -15 35 -6 93 -35 87 -44 -3 -6 4 -10
15 -10 12 0 40 -14 62 -31 42 -34 63 -34 27 0 l-23 21 46 0 c38 0 50 -5 70
-27 23 -28 43 -34 66 -19 7 4 18 3 25 -2 7 -6 23 -12 36 -14 18 -2 25 -10 28
-33 5 -38 22 -58 38 -45 7 6 15 6 22 -1 8 -8 13 -8 17 0 4 6 14 7 24 2 57 -27
77 -41 80 -54 4 -20 -48 -33 -59 -15 -10 16 -12 -2 -3 -27 8 -19 61 -48 73
-40 5 3 7 -4 4 -15 -5 -17 -14 -20 -67 -20 -33 1 -88 7 -121 15 -82 20 -102
17 -35 -5 38 -13 86 -19 155 -19 l100 -1 33 -37 32 -38 -42 -3 c-58 -5 -150 7
-143 19 6 8 0 7 -42 -7 -12 -4 1 -12 41 -24 70 -22 103 -27 220 -35 50 -4 94
-9 99 -12 6 -3 24 -6 41 -6 26 1 28 0 11 -7 -11 -5 -14 -9 -7 -9 7 -1 10 -5 7
-11 -9 -15 -25 -12 -25 4 0 12 -49 30 -58 21 -10 -10 12 -45 28 -45 10 0 22
-5 25 -10 3 -6 -1 -10 -9 -10 -9 0 -16 -4 -16 -10 0 -5 9 -10 20 -10 12 0 33
-9 48 -20 30 -22 74 -18 65 6 -3 8 1 14 11 14 10 0 16 -9 16 -25 0 -20 -5 -25
-25 -25 -32 0 -33 -18 -1 -26 14 -3 32 -14 42 -25 9 -10 23 -19 31 -19 7 0 13
-7 13 -15 0 -8 5 -16 10 -16 6 -1 14 -2 19 -3 5 0 25 -16 45 -33 19 -18 40
-33 46 -33 5 0 10 -4 10 -9 0 -5 7 -17 16 -25 14 -15 12 -16 -25 -16 -23 0
-41 -5 -41 -11 0 -7 9 -9 23 -6 12 4 29 2 37 -3 25 -16 -90 -12 -177 7 -43 9
-99 17 -125 18 -41 1 -48 -1 -48 -17 0 -10 11 -23 24 -28 27 -10 49 -43 38
-55 -4 -5 0 -6 10 -2 19 7 48 -22 41 -42 -4 -9 0 -11 16 -6 15 5 21 2 21 -10
0 -8 12 -20 26 -26 35 -13 44 -3 10 12 -14 7 -26 15 -26 19 0 3 -13 21 -30 40
-31 35 -27 59 9 61 12 0 11 2 -4 9 -28 12 -37 12 -30 0 9 -14 4 -13 -41 10
-49 24 -26 25 81 1 44 -10 71 -20 60 -22 -17 -4 -16 -7 13 -37 17 -17 37 -32
44 -32 9 0 9 -3 -2 -10 -13 -8 -12 -10 3 -10 10 0 25 -13 35 -29 9 -16 29 -37
44 -46 16 -9 26 -21 23 -26 -4 -5 3 -9 13 -9 18 0 32 -18 32 -41 0 -10 -59 0
-76 12 -6 5 -14 6 -18 2 -4 -4 -4 1 0 10 3 10 3 17 -2 16 -17 -4 -64 13 -64
24 0 6 -2 8 -5 5 -3 -3 4 -23 15 -44 11 -21 24 -52 30 -67 5 -16 13 -26 18
-23 4 2 19 -4 32 -15 l25 -19 -28 10 c-39 14 -39 14 -19 -25 12 -25 24 -35 42
-36 29 -1 60 -6 65 -11 2 -2 -3 -12 -11 -23 -14 -19 -15 -19 -20 3 -4 15 -14
22 -30 22 -13 0 -24 -4 -24 -10 0 -5 7 -10 15 -10 9 0 18 -6 21 -14 3 -9 14
-13 27 -10 50 11 77 12 72 4 -3 -5 16 -16 42 -24 l48 -15 -45 2 c-47 2 -58
-13 -18 -25 23 -6 23 -6 -2 -7 -19 -1 -21 -4 -11 -10 11 -7 9 -10 -10 -14 -19
-3 -16 -5 11 -7 19 -1 46 -5 60 -9 25 -7 25 -7 3 -13 -13 -3 -26 -2 -29 3 -7
13 -34 11 -34 -2 0 -6 9 -13 20 -16 23 -6 25 -16 10 -44 -8 -14 -7 -19 2 -19
7 0 19 -4 27 -9 12 -8 12 -12 2 -24 -8 -10 -9 -17 -1 -22 23 -14 9 -27 -22
-21 -31 6 -31 6 -13 -10 20 -15 19 -15 -3 -11 -19 5 -21 3 -11 -9 7 -8 20 -12
30 -9 11 4 19 2 19 -4 0 -6 -9 -11 -21 -11 -12 0 -17 -4 -14 -11 4 -6 13 -8
21 -5 8 3 17 -1 20 -8 3 -8 17 -13 33 -12 15 1 28 -3 28 -9 0 -7 -10 -10 -24
-7 -13 2 -23 -1 -23 -7 0 -6 6 -10 13 -8 7 1 11 -7 9 -20 -2 -13 2 -23 8 -23
6 0 8 4 5 10 -3 5 0 10 8 10 16 0 30 27 21 41 -3 5 2 9 10 9 18 0 21 -16 6
-25 -20 -12 -10 -25 20 -25 34 0 102 -29 94 -41 -2 -5 -12 -6 -22 -3 -13 5
-14 4 -3 -4 7 -5 10 -15 6 -22 -5 -8 0 -7 15 2 18 11 23 11 34 -4 8 -12 16
-14 23 -7 5 5 17 7 27 3 14 -5 13 -9 -10 -21 -27 -13 -43 -6 -44 20 0 5 -5 5
-10 2 -6 -4 -8 -15 -5 -26 4 -12 1 -19 -7 -20 -7 -1 1 -4 17 -8 21 -5 29 -12
27 -24 -3 -20 24 -24 31 -4 4 9 6 9 6 0 1 -7 12 -13 26 -13 14 0 25 -4 25 -10
0 -5 12 -10 28 -11 l27 -1 -33 -14 c-28 -12 -32 -17 -22 -29 10 -12 9 -15 -8
-15 -22 0 -42 -20 -20 -20 9 -1 7 -5 -4 -14 -10 -7 -15 -16 -11 -19 3 -4 13
-1 21 6 13 9 14 9 8 0 -4 -8 -2 -13 8 -13 8 0 18 5 21 10 3 6 18 10 33 10 23
0 27 -4 27 -25 -2 -35 -10 -40 -37 -21 -25 18 -53 22 -43 6 3 -6 16 -10 28
-10 17 0 19 -2 8 -9 -12 -8 -8 -17 22 -50 49 -54 76 -81 80 -79 1 2 13 -5 27
-15 21 -14 22 -17 6 -17 -14 0 0 -19 50 -70 38 -39 71 -75 72 -80 2 -6 8 -10
13 -10 6 0 20 -10 32 -21 12 -12 15 -18 7 -14 -8 5 -4 -5 10 -21 14 -16 26
-31 28 -33 1 -3 2 66 1 152 0 109 -4 157 -12 161 -9 3 -9 5 1 5 18 1 18 437 0
444 -10 4 -10 6 0 6 6 1 12 6 12 11 0 6 -23 10 -52 10 -28 0 -49 3 -45 6 3 4
27 6 52 6 l45 -1 0 254 c0 193 -3 255 -13 258 -9 4 -9 6 1 6 9 1 12 81 12 366
0 311 -2 365 -14 365 -8 0 -18 5 -22 11 -4 8 0 9 15 4 l21 -6 0 3940 0 3941
-9600 0 -9600 0 0 -3282z m11730 2825 c0 -11 -52 -83 -60 -83 -6 0 -10 -4 -10
-10 0 -5 -16 -32 -35 -58 -19 -27 -32 -51 -29 -54 3 -3 2 -17 -1 -30 -5 -20
-18 -27 -72 -42 -36 -9 -68 -15 -70 -12 -3 3 4 20 16 39 27 43 26 53 -1 62
l-23 8 23 4 c15 3 22 12 22 28 0 16 10 27 34 39 19 9 45 29 58 44 13 16 37 32
54 37 16 4 23 10 17 12 -27 10 -11 20 32 20 25 0 45 -2 45 -4z m-591 -1784
c17 -6 36 -20 42 -31 6 -11 17 -17 25 -14 8 3 14 1 14 -4 0 -6 -4 -10 -8 -10
-5 0 -22 -11 -38 -25 -16 -14 -35 -23 -41 -20 -7 2 -13 -2 -13 -10 0 -22 -21
-29 -38 -12 -13 13 -13 19 -2 31 11 14 9 16 -12 16 -30 0 -63 33 -55 54 3 8
21 19 39 25 45 13 50 13 87 0z m-239 -269 c0 -6 -56 -26 -137 -48 -7 -2 -13 4
-13 12 0 9 -5 16 -10 16 -6 0 -8 -11 -4 -25 5 -22 3 -25 -18 -25 -13 0 -43 -9
-66 -20 -57 -28 -92 -27 -92 3 0 13 -6 29 -12 36 -10 11 -10 14 0 18 6 3 12
11 12 19 0 12 4 12 24 -1 16 -11 26 -13 31 -6 3 6 21 11 38 11 18 0 47 4 64 9
20 6 35 6 38 0 9 -13 55 -10 90 5 30 13 55 11 55 -4z m-535 -103 c0 -9 8 -24
17 -34 15 -14 24 -15 63 -6 36 8 45 8 45 -3 0 -7 -5 -16 -10 -19 -8 -5 -7 -12
1 -22 14 -17 5 -26 -44 -45 -23 -8 -27 -15 -22 -32 4 -11 8 -28 9 -36 3 -25
16 -40 33 -40 9 0 32 -10 50 -22 25 -17 31 -28 27 -43 -9 -28 -14 -31 -24 -15
-6 10 -27 15 -67 15 -32 0 -63 4 -69 7 -6 4 -38 5 -72 3 -45 -3 -71 1 -99 15
-27 13 -42 15 -50 8 -20 -16 -63 16 -56 42 5 19 2 21 -33 19 -22 -2 -48 3 -59
9 -20 11 -20 11 0 13 46 3 134 4 125 1 -11 -4 -14 -32 -4 -32 13 0 50 47 46
58 -3 11 11 17 32 13 4 -1 15 4 24 11 12 10 16 10 19 1 3 -7 14 -13 26 -13 15
0 18 3 10 11 -15 15 -5 47 18 54 18 6 23 16 20 41 -1 7 3 24 9 39 11 28 35 30
35 2z m175 -133 c0 -12 5 -14 18 -9 29 13 200 17 222 5 27 -15 25 -30 -4 -30
-13 0 -29 -7 -36 -15 -7 -8 -24 -15 -38 -15 -14 0 -33 -6 -41 -13 -31 -25 -69
-37 -74 -23 -3 7 -25 16 -49 20 l-43 7 25 19 c22 17 23 22 13 39 -16 25 -16
31 -3 31 6 0 10 -7 10 -16z m1790 -1419 c0 5 5 4 12 -3 9 -9 16 -8 29 4 14 12
22 13 39 4 15 -8 25 -8 34 -1 10 8 16 5 24 -15 15 -32 15 -34 -2 -34 -15 0
-51 -48 -43 -57 3 -3 14 -2 24 1 10 3 22 6 26 6 4 -1 15 6 23 15 9 8 25 15 37
14 l22 0 -21 -9 c-13 -5 -24 -21 -27 -40 -4 -17 -11 -29 -17 -25 -5 3 -10 1
-10 -4 0 -6 18 -14 40 -17 22 -4 40 -11 40 -16 0 -6 -7 -7 -16 -4 -9 3 -29 6
-45 6 -19 0 -29 5 -29 15 0 19 -34 20 -53 1 -17 -17 -99 -15 -105 2 -2 7 -8
12 -13 12 -6 0 -7 -5 -3 -12 5 -8 -5 -9 -34 -5 -23 3 -45 1 -48 -4 -6 -11 -44
-12 -44 -1 0 4 -24 9 -52 9 -65 2 -118 12 -118 24 0 5 25 7 55 4 33 -2 57 0
61 7 10 15 -23 37 -45 31 -12 -3 -20 2 -23 15 -5 17 1 21 28 27 34 6 48 25 19
25 -8 0 -15 5 -15 10 0 6 11 8 25 4 14 -3 31 -2 38 3 6 6 37 9 67 9 30 -1 66
1 80 4 14 4 28 2 32 -4 4 -6 8 -7 8 -1z m5208 -681 c21 -14 89 -20 142 -11 22
3 25 -10 10 -49 -10 -26 -18 -33 -32 -28 -10 3 -26 1 -35 -5 -17 -10 -17 -10
0 -11 9 0 17 -4 17 -10 0 -5 -10 -10 -22 -10 -12 0 -36 -5 -55 -12 -34 -12
-58 -4 -33 12 13 8 12 10 -2 10 -10 0 -18 -7 -18 -15 0 -8 -4 -15 -10 -15 -5
0 -10 7 -10 15 0 17 -59 30 -96 21 -14 -4 -32 -2 -39 4 -9 8 -15 8 -20 0 -3
-5 1 -10 9 -10 29 0 16 -15 -14 -17 -21 -2 -30 2 -30 13 0 8 -4 13 -9 10 -5
-3 -14 1 -21 9 -10 12 -8 18 11 35 13 10 30 19 37 20 6 0 12 6 12 14 0 16 78
31 113 21 16 -5 18 -4 8 4 -14 9 -13 10 54 20 6 0 21 -6 33 -15z m-2048 -634
c-12 -7 -12 -10 -1 -10 7 0 11 -6 8 -14 -3 -8 5 -19 19 -26 25 -14 32 -30 13
-30 -6 0 -2 -12 9 -27 10 -16 17 -34 14 -42 -2 -8 3 -18 12 -23 9 -5 16 -16
16 -23 0 -8 5 -15 10 -15 6 0 10 -9 10 -20 0 -11 9 -28 20 -37 20 -17 28 -53
12 -53 -4 0 -6 -16 -4 -35 2 -19 2 -35 -2 -35 -9 0 -36 57 -36 77 0 10 -14 36
-30 57 -17 22 -30 51 -30 66 0 16 -12 37 -30 55 -16 16 -30 36 -30 46 0 9 -7
22 -15 29 -8 7 -15 16 -15 21 0 14 38 49 53 49 8 0 7 -4 -3 -10z m2067 -1991
c32 1 43 -2 43 -12 0 -10 16 -17 48 -22 40 -7 43 -9 22 -15 -14 -4 -35 -3 -47
1 -12 5 -25 4 -28 0 -7 -12 36 -22 64 -14 32 8 94 -14 181 -65 85 -50 95 -58
60 -47 -14 4 -27 11 -30 14 -8 11 -49 11 -55 0 -17 -26 -145 10 -158 46 -4 8
-16 15 -27 15 -12 0 -31 11 -43 24 -12 13 -32 26 -44 30 -13 4 -23 12 -23 18
0 6 -8 17 -17 25 -10 8 -12 11 -4 7 8 -4 34 -7 58 -5z m338 -218 c-3 -5 0 -13
6 -17 6 -3 15 -1 19 6 12 20 90 -18 90 -44 0 -10 3 -16 7 -13 3 4 12 2 19 -4
10 -8 13 -6 11 10 -1 12 -7 21 -14 21 -7 0 -13 4 -13 8 0 5 -12 13 -27 19 -25
10 -26 11 -6 12 12 1 35 -10 51 -24 17 -14 34 -25 39 -25 6 0 28 -13 50 -29
22 -16 49 -31 59 -34 14 -3 11 -5 -8 -6 -16 0 -28 4 -28 10 0 6 -9 8 -20 4
-15 -5 -18 -3 -14 9 5 12 2 15 -12 9 -12 -4 -15 -3 -10 5 5 8 2 10 -8 6 -9 -3
-14 -10 -11 -14 3 -4 -2 -11 -11 -14 -25 -9 -116 -7 -110 3 3 5 -5 12 -19 15
-14 4 -25 11 -25 17 0 6 9 9 20 6 11 -3 18 -1 14 4 -3 5 2 9 11 9 9 0 13 -4
10 -10 -3 -5 1 -10 10 -10 9 0 13 5 10 10 -3 6 0 10 7 11 7 0 -2 5 -21 10 -26
8 -37 7 -50 -5 -22 -20 -35 -20 -27 -1 4 11 -3 17 -25 22 l-31 6 23 13 c28 16
42 18 34 5z m423 -192 c2 -5 18 -17 34 -25 24 -13 28 -18 17 -26 -10 -7 -8 -8
9 -3 17 5 24 1 31 -16 10 -29 -3 -44 -41 -45 -16 -1 -24 2 -18 6 7 4 8 10 3
13 -4 3 -16 -1 -26 -8 -14 -10 -15 -14 -5 -18 9 -4 8 -6 -3 -6 -9 -1 -20 6
-23 14 -4 13 -10 14 -26 5 -16 -8 -22 -7 -32 10 -7 11 -18 20 -25 20 -11 0
-79 42 -93 57 -3 3 6 2 20 -1 19 -6 21 -5 10 3 -8 6 -24 11 -35 11 -11 0 -29
7 -40 16 -18 13 -6 14 110 9 72 -4 132 -11 133 -16z m530 8 c6 -5 12 -6 12 -1
0 8 41 9 230 4 24 0 31 -3 21 -9 -7 -5 -22 -6 -32 -4 -10 3 -19 0 -19 -6 0 -6
6 -11 14 -11 8 0 18 -5 22 -11 4 -8 -1 -9 -17 -3 -13 4 -32 7 -41 6 -10 0 -18
4 -18 10 0 6 -7 7 -17 3 -20 -9 -42 -9 -93 0 l-35 5 35 -20 c43 -23 25 -26
-30 -4 -22 9 -49 14 -60 11 -11 -3 -18 -2 -16 2 3 4 -18 7 -45 6 -27 0 -49 -1
-49 -3 0 -1 14 -11 32 -22 l32 -19 -43 2 c-24 1 -38 3 -32 5 21 7 0 22 -32 23
-18 0 -26 3 -18 6 10 4 11 7 1 13 -7 5 10 8 40 8 29 1 57 5 63 11 13 13 78 12
95 -2z m-458 -687 c11 -7 12 -12 3 -18 -7 -4 3 -14 28 -26 21 -10 36 -23 33
-27 -3 -5 1 -9 9 -9 10 0 13 7 10 20 -3 11 -11 20 -19 20 -17 0 -27 17 -15 24
5 4 15 1 23 -6 18 -18 59 -21 52 -4 -4 9 7 13 41 14 36 0 45 -3 41 -14 -7 -18
12 -28 28 -15 9 8 18 5 34 -14 14 -16 17 -25 9 -29 -7 -2 0 -5 16 -5 25 -1 41
-21 15 -21 -6 0 -9 -3 -5 -6 3 -4 14 -4 23 0 15 6 15 9 -6 31 -43 46 -7 44 37
-2 31 -31 38 -43 25 -43 -15 -1 -15 -2 2 -15 19 -15 19 -15 -3 -15 -14 0 -21
-5 -18 -12 3 -9 22 -12 61 -10 32 2 55 -1 52 -6 -2 -4 7 -17 21 -27 l26 -20
-24 -6 c-24 -7 -24 -7 3 -8 14 -1 28 -5 30 -11 2 -5 15 -11 31 -12 26 -2 40
-28 15 -28 -9 0 -9 -3 1 -9 8 -5 21 -7 30 -4 10 4 9 0 -4 -10 -15 -11 -22 -12
-27 -4 -6 9 -11 8 -18 -3 -13 -19 -13 -30 0 -30 6 0 10 -8 10 -17 0 -15 2 -16
10 -3 5 8 12 11 16 7 4 -4 13 -2 20 4 13 11 26 -2 31 -30 1 -11 -11 -13 -65
-8 -37 4 -76 9 -87 11 -11 3 -31 5 -45 7 -21 1 -19 3 10 9 26 5 29 8 11 9
l-24 1 22 19 21 19 -22 6 c-13 3 -36 6 -53 7 -17 1 -22 3 -12 6 29 8 19 20
-25 29 -41 9 -57 30 -35 45 5 3 2 9 -6 12 -11 4 -15 0 -12 -14 3 -14 -2 -19
-17 -19 -12 0 -18 5 -15 13 4 10 -8 12 -54 9 -44 -3 -59 -1 -59 8 0 8 -3 10
-7 7 -7 -8 -43 21 -43 35 0 5 12 7 28 4 15 -2 30 -5 35 -5 4 -1 7 -11 8 -23 1
-22 1 -22 9 2 6 21 8 22 14 8 10 -23 37 -32 29 -10 -10 27 -35 52 -46 45 -6
-4 -8 3 -4 18 5 20 2 25 -13 25 -19 0 -25 -9 -21 -30 1 -5 -5 -6 -13 -3 -8 3
-16 1 -18 -4 -2 -7 -16 -5 -38 4 -19 9 -29 16 -22 16 23 2 12 19 -13 19 -14 0
-26 -7 -28 -17 -3 -12 -6 -10 -14 9 -13 31 -5 53 15 45 12 -4 13 -3 2 10 -7 8
-16 12 -21 9 -5 -3 -9 -1 -9 5 0 5 -10 11 -22 13 -28 4 -46 58 -20 58 10 0 24
-5 32 -10z"/>
<path d="M7463 8761 l-61 -6 101 -112 102 -112 118 0 c64 1 117 3 117 6 0 3
-48 56 -106 119 l-106 114 -52 -2 c-28 -1 -79 -4 -113 -7z"/>
<path d="M7783 8658 c56 -60 109 -113 117 -117 8 -4 57 -9 109 -10 l94 -3 -21
27 c-11 14 -58 66 -104 114 l-84 88 -107 5 -107 6 103 -110z"/>
<path d="M7217 8745 c-59 -8 -115 -15 -124 -17 -12 -2 1 -22 53 -78 38 -42 86
-95 107 -119 l38 -43 127 17 c69 9 128 18 130 20 5 5 -209 235 -217 234 -3 -1
-54 -7 -114 -14z"/>
<path d="M8022 8664 c47 -49 95 -101 107 -115 16 -21 32 -28 78 -33 32 -4 76
-10 98 -13 l40 -6 -109 115 -108 115 -57 7 c-31 4 -74 9 -96 13 l-39 6 86 -89z"/>
<path d="M6870 8697 c-69 -11 -127 -21 -129 -23 -3 -3 96 -118 174 -200 l40
-42 135 25 c74 14 137 27 139 29 7 6 -211 234 -223 233 -6 -1 -67 -11 -136
-22z"/>
<path d="M8285 8602 l105 -109 80 -19 c44 -11 80 -19 80 -17 0 1 -46 50 -102
108 -103 106 -103 106 -178 125 -41 11 -78 20 -83 20 -4 0 40 -49 98 -108z"/>
<path d="M6517 8625 c-77 -19 -141 -35 -143 -37 -2 -2 20 -29 49 -59 29 -30
49 -51 45 -45 -5 5 -8 14 -8 20 0 5 6 1 14 -9 8 -11 12 -24 10 -30 -2 -5 19
-35 46 -65 l49 -54 118 29 c65 17 119 33 121 36 2 4 11 5 22 2 10 -3 25 -1 34
4 12 6 -6 32 -90 126 -58 64 -111 117 -117 116 -7 0 -74 -16 -150 -34z m238
-125 c13 -7 28 -23 35 -36 7 -13 16 -21 21 -19 4 3 5 -4 2 -14 -3 -12 -17 -21
-38 -25 -42 -8 -65 1 -65 26 0 10 -5 16 -10 13 -6 -4 -10 -3 -9 2 5 21 -14 43
-32 38 -21 -7 -23 2 -13 54 5 21 11 30 20 27 7 -3 16 0 20 6 4 6 15 -5 27 -25
11 -19 30 -41 42 -47z"/>
<path d="M8495 8549 c92 -95 106 -106 173 -130 85 -31 88 -38 -45 101 -81 85
-113 104 -213 128 -8 2 30 -42 85 -99z"/>
<path d="M6125 8522 c-82 -25 -152 -47 -154 -48 -2 -2 18 -28 44 -59 26 -30
50 -53 52 -51 3 3 -4 15 -16 27 -11 12 -19 25 -16 27 9 9 44 -43 40 -58 -2 -8
19 -41 48 -74 l53 -59 87 28 c87 28 88 29 59 40 -34 15 -72 60 -72 87 0 11 9
41 21 68 18 43 23 47 35 35 8 -8 15 -17 14 -20 0 -5 38 -45 43 -45 2 0 25 -20
51 -45 l48 -45 -26 -10 c-15 -5 -32 -10 -38 -10 -6 0 -9 -2 -6 -5 3 -3 33 2
66 11 l61 17 -107 118 c-59 66 -113 119 -122 118 -8 0 -82 -21 -165 -47z"/>
<path d="M7742 8510 l-114 -5 107 -117 106 -118 75 0 c71 0 80 4 75 33 -1 5 3
6 9 2 6 -3 8 -11 5 -16 -4 -5 12 -9 35 -9 l42 0 -70 78 c-39 42 -90 95 -114
117 l-43 40 -113 -5z"/>
<path d="M7930 8501 c8 -6 18 -7 24 -4 5 3 6 1 2 -6 -5 -7 28 -50 84 -111 l92
-99 104 -3 c57 -2 104 -2 104 0 0 2 -48 55 -107 118 l-107 114 -105 0 c-68 0
-101 -4 -91 -9z"/>
<path d="M7460 8489 c-36 -5 -84 -11 -108 -15 l-43 -5 73 -81 c40 -44 89 -98
108 -120 l36 -41 101 14 c56 7 100 16 98 19 -2 3 13 4 33 2 l36 -5 -27 32
c-14 17 -64 72 -109 121 -90 98 -81 94 -198 79z"/>
<path d="M8266 8404 c51 -54 100 -106 110 -115 17 -15 181 -45 191 -36 1 2
-44 53 -102 114 l-104 110 -63 7 c-35 4 -76 10 -93 13 -27 6 -22 -3 61 -93z"/>
<path d="M8496 8374 c51 -54 100 -106 110 -115 15 -14 163 -53 171 -46 1 1
-44 50 -100 109 -100 104 -103 107 -168 122 -36 8 -75 19 -85 23 -10 3 22 -38
72 -93z"/>
<path d="M7095 8437 c-66 -11 -122 -21 -124 -23 -3 -2 86 -104 204 -232 9 -10
37 -8 150 13 76 14 140 27 142 29 2 2 -44 56 -103 120 -76 83 -112 116 -128
115 -11 -1 -75 -10 -141 -22z"/>
<path d="M5703 8383 l-182 -66 36 -42 c21 -25 42 -41 49 -38 8 3 15 -1 15 -8
1 -8 2 -19 3 -26 2 -22 91 -122 108 -123 16 0 178 56 187 65 2 3 -17 27 -43
54 l-46 50 21 53 c34 89 32 90 142 -46 36 -45 45 -62 35 -69 -9 -6 -8 -7 5 -3
11 3 30 9 43 12 14 4 24 10 22 15 -5 14 -200 239 -207 238 -3 0 -88 -30 -188
-66z"/>
<path d="M8671 8364 c25 -27 69 -75 98 -106 46 -49 64 -61 127 -82 l74 -25
-104 112 c-94 100 -110 113 -153 124 -26 6 -57 15 -68 19 -13 4 -3 -11 26 -42z"/>
<path d="M6747 8365 c-76 -18 -140 -35 -143 -38 -6 -6 204 -242 214 -241 4 0
73 16 155 35 111 26 146 37 142 48 -10 26 -200 229 -215 229 -8 0 -77 -15
-153 -33z"/>
<path d="M6425 8284 c-44 -14 -111 -34 -149 -45 -38 -11 -73 -22 -78 -25 -10
-6 190 -238 209 -242 8 -2 55 9 105 24 65 20 85 30 72 35 -11 4 -36 25 -58 47
-30 31 -37 45 -31 62 5 15 4 20 -4 16 -7 -5 -9 -1 -5 9 4 9 13 14 21 10 13 -4
14 2 9 32 -3 21 -3 32 0 25 3 -6 10 -9 16 -6 11 7 58 -34 58 -50 0 -6 -4 -5
-9 2 -7 11 -9 10 -14 -3 -4 -9 -3 -13 3 -10 5 3 22 -6 37 -22 16 -15 32 -26
38 -25 5 2 7 0 3 -4 -4 -4 -2 -14 5 -22 10 -13 9 -14 -3 -7 -9 5 -7 -1 5 -15
17 -20 18 -23 3 -17 -10 4 -18 2 -18 -4 0 -6 -9 -8 -22 -4 -17 6 -20 4 -12 -4
8 -9 26 -8 73 6 33 10 61 21 61 25 0 16 -205 238 -219 237 -9 0 -52 -12 -96
-25z"/>
<path d="M5395 8269 c-69 -28 -74 -39 -8 -18 6 2 13 0 15 -5 1 -5 -12 -10 -31
-12 -19 -3 -42 -11 -50 -18 -9 -8 -29 -18 -44 -22 -21 -5 -25 -9 -16 -15 7 -4
10 -11 6 -16 -4 -4 -17 -1 -29 6 -13 8 -23 9 -27 3 -3 -5 -15 -12 -26 -15 -14
-4 -11 -6 10 -5 56 0 61 -2 35 -17 -25 -14 -21 -19 12 -16 9 1 19 -3 23 -9 3
-6 -3 -10 -14 -10 -25 0 -28 -20 -3 -20 9 -1 -9 -14 -41 -31 -32 -16 -63 -27
-68 -23 -17 10 7 -30 27 -47 16 -12 17 -12 9 1 -8 13 -6 13 7 2 9 -8 14 -20
11 -28 -4 -10 0 -15 8 -14 26 4 39 0 39 -11 0 -6 -7 -9 -15 -5 -12 4 -13 2 -2
-14 13 -21 37 -27 37 -9 0 5 5 7 10 4 6 -4 16 -3 23 3 7 5 33 15 59 22 26 7
61 24 77 39 l30 27 -38 44 c-36 42 -37 47 -29 85 5 22 13 42 19 43 5 2 9 10 9
17 0 8 5 17 10 20 13 8 42 -14 35 -25 -3 -4 2 -10 10 -14 8 -3 15 -10 15 -16
0 -12 104 -120 115 -120 3 0 15 5 26 11 19 10 19 11 -7 42 -47 56 -118 133
-109 118 5 -10 4 -12 -4 -7 -6 4 -9 11 -6 16 3 5 -9 25 -27 44 l-33 35 -50
-20z"/>
<path d="M7943 8253 c-40 -2 -73 -6 -73 -10 0 -3 48 -58 107 -122 l108 -116
105 4 c58 2 110 6 117 10 8 4 -25 47 -95 124 l-107 117 -45 -2 c-25 -1 -78 -4
-117 -5z"/>
<path d="M8168 8248 c7 -7 18 -13 25 -13 7 0 12 -7 12 -15 0 -9 38 -57 85
-108 l85 -92 103 1 103 1 -111 118 -110 118 -102 1 c-84 2 -101 0 -90 -11z"/>
<path d="M7700 8233 c-170 -23 -159 -15 -101 -81 27 -31 78 -87 113 -124 l63
-68 122 18 c66 9 122 21 123 25 1 5 -47 62 -106 128 -60 65 -109 118 -109 118
0 -1 -47 -8 -105 -16z"/>
<path d="M8463 8194 c30 -33 81 -87 113 -121 l59 -63 90 -6 89 -7 -108 115
c-106 113 -111 116 -160 122 -28 4 -71 9 -95 13 l-44 6 56 -59z"/>
<path d="M8662 8201 c7 -10 55 -62 105 -115 l93 -96 77 -15 c43 -8 80 -15 82
-15 2 0 -45 51 -104 113 -113 118 -110 116 -233 140 -31 6 -32 5 -20 -12z"/>
<path d="M7348 8182 c-76 -14 -138 -29 -138 -33 0 -3 50 -61 111 -128 77 -85
116 -120 127 -117 9 3 38 8 65 12 45 6 58 16 37 29 -6 4 -8 11 -5 16 4 5 0 9
-8 9 -8 0 -21 8 -28 18 -13 16 -13 16 6 2 18 -14 19 -14 7 2 -8 9 -19 15 -25
12 -7 -2 -18 5 -26 17 -12 20 -11 21 5 15 17 -6 17 -6 -1 14 -16 18 -17 20 -1
20 14 0 15 3 5 22 -9 17 -9 23 0 26 6 2 8 9 5 15 -4 7 26 -21 65 -62 44 -45
70 -80 66 -89 -3 -8 0 -12 7 -10 7 3 19 -1 26 -9 7 -7 27 -13 43 -13 28 0 25
6 -87 130 -64 72 -117 129 -118 129 -1 -1 -63 -13 -138 -27z"/>
<path d="M5955 8135 c-82 -29 -165 -59 -183 -66 l-33 -14 98 -117 c54 -64 104
-119 111 -122 7 -3 65 13 129 36 87 31 112 43 97 49 -10 4 -40 29 -67 56 l-48
49 18 40 c9 21 16 43 15 47 -1 4 6 7 15 5 23 -4 74 -59 66 -71 -3 -6 -2 -7 4
-4 8 5 43 -25 43 -38 0 -3 12 -18 26 -34 23 -26 29 -28 55 -19 17 6 29 13 27
17 -8 19 -204 239 -213 239 -5 1 -77 -23 -160 -53z"/>
<path d="M8908 8113 c90 -103 165 -169 205 -181 77 -22 72 -4 -30 102 -90 92
-103 102 -158 118 -33 10 -62 17 -63 18 -2 0 19 -26 46 -57z"/>
<path d="M9864 8118 c-64 -68 -66 -72 -53 -101 14 -30 26 -34 139 -43 l84 -7
-32 34 c-17 19 -27 36 -21 38 7 2 6 6 -2 12 -11 7 -10 9 4 9 10 0 17 7 17 18
0 15 -2 15 -11 2 -9 -12 -10 -10 -6 8 4 18 2 22 -9 18 -16 -6 -19 9 -4 19 25
15 9 35 -28 35 -32 0 -44 -7 -78 -42z"/>
<path d="M11871 8144 c-10 -11 -23 -14 -45 -9 -39 8 -49 8 -166 2 -119 -6
-110 -4 -110 -22 0 -9 9 -15 25 -15 14 0 25 5 25 10 0 12 37 13 44 1 3 -5 -5
-12 -18 -15 -18 -4 -23 -11 -19 -26 7 -26 29 -26 43 1 12 22 36 21 33 -2 -2
-12 14 -15 74 -17 42 -1 86 1 97 4 19 6 18 8 -9 30 l-30 24 33 -6 c25 -5 32
-3 32 10 0 9 7 16 15 16 21 0 19 -9 -7 -31 -13 -10 -18 -18 -11 -19 6 0 18 -3
27 -6 11 -4 16 0 16 14 0 12 5 24 10 27 6 4 1 15 -14 26 -29 23 -27 22 -45 3z"/>
<path d="M12135 8144 c-11 -9 -27 -9 -57 -1 -38 9 -43 8 -56 -11 -8 -12 -24
-22 -36 -22 -30 0 -55 -18 -39 -28 9 -5 1 -12 -24 -21 -33 -12 -35 -15 -19
-27 11 -7 15 -18 10 -25 -4 -8 -3 -10 5 -5 6 4 9 16 6 26 -5 14 1 20 25 25 17
4 34 13 37 21 3 9 13 12 29 8 19 -5 26 -1 33 17 l10 24 7 -22 c7 -24 33 -30
50 -13 8 8 19 7 37 -1 20 -9 30 -9 41 0 8 7 33 10 61 7 75 -7 128 22 73 40
-13 4 -26 12 -30 17 -4 7 -15 2 -30 -14 -18 -19 -29 -23 -48 -18 -14 4 -19 7
-12 8 6 1 12 5 12 10 0 14 -67 18 -85 5z"/>
<path d="M6985 8106 c-71 -18 -136 -34 -143 -37 -9 -3 26 -50 97 -131 l111
-126 78 19 c108 28 112 29 84 40 -13 5 -20 13 -17 19 3 5 0 10 -7 10 -20 0
-102 86 -89 94 5 4 8 13 4 21 -4 11 -1 13 11 9 11 -4 15 -2 11 7 -3 8 0 21 5
29 8 12 18 7 56 -32 28 -29 43 -52 38 -59 -5 -8 -3 -9 5 -4 8 4 25 -7 47 -30
34 -38 43 -51 24 -40 -5 3 -10 1 -10 -5 0 -6 -4 -9 -9 -6 -4 3 -17 -2 -27 -10
-10 -9 -13 -12 -5 -8 8 4 32 9 55 12 23 2 46 7 52 11 15 8 -203 251 -225 250
-9 -1 -74 -15 -146 -33z"/>
<path d="M10583 8123 c-18 -9 -33 -20 -33 -25 0 -4 -5 -8 -10 -8 -6 0 -38 -19
-71 -42 -55 -39 -59 -43 -37 -49 20 -6 20 -7 -8 -8 -39 -1 -96 -58 -96 -96 0
-45 21 -56 113 -61 52 -3 76 -1 64 4 -22 10 -27 33 -10 44 6 5 2 8 -9 8 -20 0
-20 0 0 15 10 8 14 15 9 15 -6 0 -12 11 -13 25 -1 20 3 25 21 26 18 1 17 3 -8
10 -23 6 -18 7 23 4 36 -3 52 0 52 8 0 7 21 39 45 71 25 33 45 63 45 68 0 13
-12 9 -27 -9 -14 -17 -14 -17 -9 0 6 21 1 21 -41 0z"/>
<path d="M4946 8075 c-3 -8 -11 -15 -18 -15 -9 0 -8 3 2 10 21 13 6 12 -24 -1
-14 -7 -23 -17 -19 -22 4 -6 0 -8 -10 -4 -11 4 -14 2 -11 -8 3 -7 14 -15 25
-18 10 -3 23 -15 27 -28 7 -19 10 -20 15 -6 7 18 47 24 47 7 0 -5 9 -10 20
-10 15 0 20 -7 20 -27 1 -52 84 -119 125 -102 11 4 17 8 13 10 -21 5 -29 7
-38 8 -5 0 -10 5 -10 11 0 5 8 6 18 3 9 -4 2 6 -15 21 -18 15 -32 30 -30 34 3
10 -65 92 -72 88 -3 -2 -13 3 -21 12 -13 14 -12 15 3 9 17 -6 17 -5 0 18 -21
28 -38 32 -47 10z"/>
<path d="M10138 8059 c-15 -11 -36 -35 -48 -53 -42 -68 7 -106 138 -106 39 0
62 -4 62 -11 0 -8 -22 -9 -76 -4 -81 7 -94 -4 -29 -25 19 -6 35 -18 35 -25 0
-8 7 -11 20 -8 11 3 28 -1 37 -8 15 -12 16 -12 8 1 -15 25 -15 43 2 55 18 13
10 35 -12 35 -7 0 -21 7 -30 16 -13 14 -14 19 -3 25 9 6 6 11 -12 19 -22 9
-23 10 -3 6 19 -3 22 0 21 21 -2 18 -7 23 -21 19 -15 -4 -16 -2 -6 10 6 7 14
12 18 10 4 -3 7 4 8 14 1 12 -8 20 -29 24 -44 9 -50 8 -80 -15z"/>
<path d="M6588 8001 c-87 -26 -160 -49 -163 -53 -8 -7 204 -248 219 -248 13 0
189 50 194 55 2 2 -26 33 -63 70 l-65 67 20 34 c23 36 44 36 54 1 5 -18 8 -20
16 -7 5 8 10 11 10 5 0 -5 16 -27 35 -48 19 -21 33 -43 30 -48 -3 -5 2 -6 11
-2 11 4 15 2 11 -4 -4 -6 1 -14 10 -17 15 -6 15 -8 3 -17 -11 -8 -6 -9 20 -5
19 4 38 10 42 14 9 9 -200 252 -216 251 -6 0 -82 -22 -168 -48z"/>
<path d="M4800 8019 c-26 -15 -29 -18 -10 -13 41 11 15 -7 -47 -32 -62 -26
-77 -29 -53 -14 22 14 -1 11 -25 -3 -11 -7 -21 -22 -23 -34 -3 -20 0 -21 47
-17 41 4 51 1 51 -11 0 -8 -7 -15 -15 -15 -8 0 -15 -4 -15 -10 0 -5 -11 -10
-25 -10 -14 0 -25 -4 -25 -9 0 -5 9 -7 20 -4 11 3 20 0 20 -6 0 -6 -7 -11 -16
-11 -8 0 -13 -4 -10 -9 3 -5 -6 -12 -21 -15 -19 -5 -23 -10 -14 -19 15 -15 14
-40 -1 -31 -7 4 -2 -7 11 -24 24 -35 44 -43 34 -14 -6 15 -4 15 16 -2 16 -15
24 -17 33 -8 17 17 33 15 18 -3 -7 -9 -8 -15 -2 -15 5 0 12 7 16 15 3 8 17 15
31 15 14 0 25 5 25 11 0 5 4 8 9 4 5 -3 12 -1 16 5 3 5 14 10 23 10 9 1 32 14
50 29 31 26 33 31 21 52 -7 13 -18 30 -26 37 -9 9 -11 25 -7 47 5 31 4 33 -27
40 -22 5 -34 4 -37 -4 -6 -18 -30 -13 -43 10 -9 18 -8 20 9 15 26 -9 36 8 16
25 -14 11 -13 14 8 25 13 8 19 13 13 13 -5 0 -26 -9 -45 -20z"/>
<path d="M8167 7993 l-68 -4 37 -42 c134 -151 142 -157 166 -148 13 5 44 15
71 22 42 10 47 14 41 33 -6 18 -5 19 10 7 24 -20 20 -40 -11 -47 l-27 -7 24
-9 c25 -9 63 -1 55 12 -3 5 4 11 15 15 18 6 12 16 -57 91 l-76 84 -56 -2 c-31
-1 -87 -3 -124 -5z"/>
<path d="M8425 7968 c114 -127 113 -126 153 -113 64 21 94 27 87 15 -3 -5 -26
-15 -51 -21 -53 -14 -73 -35 -23 -24 19 4 39 11 46 17 7 6 13 4 16 -4 4 -9 6
-8 6 3 1 10 13 19 32 23 l31 6 -58 64 -59 65 -104 0 -105 1 29 -32z"/>
<path d="M8697 7943 c25 -29 51 -53 57 -54 6 -1 25 -1 41 0 l30 1 -35 -14 -35
-13 44 -4 c27 -3 45 0 48 7 2 6 18 15 36 18 l31 6 -44 44 c-44 44 -47 45 -131
53 l-87 9 45 -53z"/>
<path d="M7910 7964 c-136 -20 -126 -16 -109 -34 8 -8 56 -61 106 -116 79 -87
97 -101 120 -98 15 1 36 14 46 28 11 15 28 26 42 26 30 0 56 10 50 19 -2 4 10
5 28 3 l32 -5 -43 -19 c-48 -21 -53 -36 -6 -17 16 6 41 11 56 11 15 0 31 4 34
10 5 7 1 9 -9 5 -11 -4 -42 23 -109 96 -67 74 -99 102 -118 104 -14 1 -68 -5
-120 -13z"/>
<path d="M14325 7960 c-16 -3 -29 -9 -27 -15 2 -5 -41 -19 -94 -31 -54 -11
-102 -28 -108 -36 -12 -16 -155 -77 -184 -79 -11 0 -12 -2 -4 -6 19 -8 14 -22
-13 -35 -13 -6 -27 -18 -30 -27 -6 -19 -85 -66 -85 -51 0 5 -4 10 -10 10 -5 0
-7 -7 -4 -15 4 -9 0 -15 -10 -15 -9 0 -16 -4 -16 -10 0 -5 5 -10 11 -10 19 0
-12 -30 -53 -51 -21 -11 -38 -25 -38 -31 0 -6 9 -3 20 7 11 10 20 14 20 8 0
-16 -38 -46 -49 -38 -6 3 -14 -1 -17 -10 -4 -9 -12 -14 -19 -11 -6 2 -18 0
-26 -6 -11 -8 -10 -9 5 -4 13 5 17 2 12 -9 -6 -17 9 -21 19 -5 3 6 11 10 18
10 15 0 -3 -18 -35 -34 -14 -7 -23 -21 -22 -33 0 -18 -3 -20 -17 -12 -26 14
-31 11 -19 -11 11 -21 2 -25 -42 -21 -20 2 -24 -24 -6 -35 7 -5 8 -3 3 6 -6
10 -3 12 13 8 12 -4 25 -2 28 3 3 5 9 9 15 9 5 0 1 -8 -8 -18 -10 -11 -22 -17
-26 -14 -4 2 -13 -10 -19 -26 -11 -28 -13 -29 -25 -14 -11 14 -13 14 -11 2 2
-9 -3 -14 -12 -12 -8 1 -4 -6 9 -17 l24 -19 -21 -13 c-12 -8 -22 -19 -22 -26
0 -6 -5 -15 -12 -19 -6 -4 -8 -3 -5 4 5 6 -2 6 -18 -1 -13 -7 -27 -18 -30 -25
-3 -9 0 -10 15 -2 10 5 21 10 24 10 12 0 6 -29 -9 -44 -8 -8 -18 -29 -22 -47
-12 -61 -82 -143 -83 -96 -1 16 -27 -41 -34 -74 -6 -26 -8 -26 -43 -17 -85 21
-84 21 -77 4 7 -17 104 -50 142 -48 12 1 22 -2 22 -7 0 -5 15 -12 33 -16 30
-7 187 -44 419 -99 58 -14 124 -25 145 -23 21 1 51 -2 67 -6 26 -7 28 -7 16 8
-12 15 -11 15 16 3 16 -7 31 -15 34 -19 3 -3 12 -9 20 -13 8 -4 26 -13 40 -21
14 -8 26 -10 28 -5 4 12 25 4 104 -42 36 -21 77 -38 91 -38 13 0 57 -18 97
-40 111 -61 121 -59 227 56 98 107 106 119 72 109 -18 -5 -14 0 13 19 20 14
41 26 45 26 8 0 70 70 88 99 6 11 4 13 -11 8 -13 -5 -12 -2 6 11 35 25 130
122 130 133 0 5 -10 4 -22 -2 -21 -11 -22 -11 -9 5 8 10 29 25 47 34 31 16 94
85 94 104 0 5 -9 4 -21 -2 -39 -21 -29 -4 12 21 23 13 51 33 62 43 l20 19 -27
22 c-37 30 -164 92 -256 125 -186 68 -418 93 -610 64 -128 -18 -146 -22 -190
-38 -19 -8 -53 -19 -75 -26 -75 -24 -222 -101 -296 -156 -41 -30 -58 -41 -39
-24 130 117 356 222 547 254 123 21 217 25 346 15 61 -4 113 -6 116 -4 8 9 9
55 1 60 -13 8 0 35 15 35 22 0 44 28 38 50 -5 19 -7 20 -30 5 -13 -9 -30 -14
-36 -12 -7 2 5 14 26 27 26 16 37 29 37 46 0 24 0 24 -31 9 -46 -24 -47 -10
-1 20 28 18 40 33 40 51 0 28 -6 30 -36 8 -13 -9 -25 -14 -28 -11 -8 7 26 37
42 37 8 0 14 6 15 13 0 6 2 20 4 30 4 21 -14 22 -41 2 -25 -19 -40 -19 -24 0
7 8 16 15 21 15 5 0 18 8 28 17 15 12 18 21 10 35 -10 18 -39 25 -39 10 0 -5
-16 -16 -35 -25 -43 -20 -47 -14 -5 8 17 9 30 19 30 24 0 11 -70 20 -76 9 -3
-4 -11 -8 -17 -8 -7 0 -6 4 3 10 11 7 4 10 -27 10 -23 0 -48 7 -56 15 -16 15
-133 18 -202 5z"/>
<path d="M5462 7953 c-6 -2 -9 -10 -5 -16 4 -6 0 -8 -10 -4 -22 8 -49 -2 -40
-16 4 -6 0 -8 -10 -4 -17 7 -97 -21 -97 -34 0 -5 -6 -6 -14 -3 -8 3 -17 1 -20
-5 -9 -13 133 -183 146 -175 7 5 8 2 3 -5 -8 -14 31 -61 52 -61 15 0 183 64
222 85 l25 12 -54 57 -54 57 16 47 c13 37 14 43 2 28 -7 -11 -14 -25 -14 -32
0 -28 -20 -21 -70 26 -30 28 -56 50 -59 49 -3 0 -12 -3 -19 -6z"/>
<path d="M10925 7918 c-22 -18 -64 -56 -93 -85 -44 -43 -53 -56 -47 -75 11
-36 34 -48 96 -48 32 0 64 -3 73 -6 23 -9 20 7 -10 41 -14 16 -21 31 -15 33 5
2 7 10 4 18 -3 8 2 24 10 37 14 22 14 23 -16 25 -54 4 -43 12 18 12 50 0 56 2
45 15 -11 13 -9 20 10 40 l23 25 -29 0 c-18 0 -44 -12 -69 -32z"/>
<path d="M7578 7913 l-137 -26 102 -111 c89 -97 106 -111 132 -109 39 2 125
26 125 34 0 4 -10 5 -22 1 -15 -4 -19 -2 -13 7 5 8 -8 28 -35 56 -35 36 -40
46 -31 63 6 10 7 22 4 26 -3 3 1 6 10 6 11 0 14 5 10 17 -4 11 -3 14 5 9 7 -4
12 -14 12 -23 0 -9 3 -14 6 -10 10 9 47 -30 39 -42 -3 -7 -2 -10 3 -9 5 2 30
-16 56 -40 33 -31 50 -41 61 -35 12 7 -5 30 -77 108 -51 55 -97 101 -102 102
-6 0 -73 -10 -148 -24z"/>
<path d="M6270 7901 c-41 -15 -126 -44 -187 -66 -62 -21 -113 -42 -113 -46 0
-4 46 -61 101 -126 56 -65 103 -119 104 -121 3 -3 265 87 285 98 10 6 4 8 -20
5 -32 -3 -40 1 -92 58 l-57 62 20 44 19 44 48 -49 c107 -113 125 -136 111
-145 -19 -12 -3 -11 42 2 l37 12 -110 128 c-61 71 -111 129 -112 128 -1 0 -35
-13 -76 -28z"/>
<path d="M10620 7894 c-63 -57 -66 -108 -6 -119 49 -10 146 -11 146 -2 0 4 -3
7 -8 7 -4 0 -12 10 -17 22 -6 14 -22 26 -40 29 -29 6 -29 7 -3 8 19 1 29 8 37
31 8 24 7 30 -4 30 -9 0 -12 6 -9 15 5 11 -1 15 -25 15 -21 0 -43 -11 -71 -36z"/>
<path d="M7220 7836 c-69 -18 -131 -35 -139 -37 -10 -3 15 -37 75 -105 49 -54
104 -117 122 -139 18 -22 30 -33 27 -24 -5 13 3 20 32 30 21 7 43 13 48 14 6
0 27 8 48 17 l37 17 -65 62 c-58 56 -82 99 -55 99 6 0 10 6 10 13 0 6 4 18 9
26 8 12 12 12 25 2 8 -7 12 -19 9 -27 -4 -10 0 -12 11 -8 9 4 16 1 16 -6 0 -7
11 -21 25 -32 14 -11 22 -24 19 -29 -3 -6 3 -13 15 -16 12 -3 21 -9 21 -13 0
-4 9 -17 20 -30 15 -17 17 -26 9 -37 -17 -20 17 -17 45 4 l22 17 -61 66 c-34
36 -82 88 -106 117 -32 37 -51 51 -69 51 -14 0 -81 -14 -150 -32z"/>
<path d="M11347 7831 c-64 -42 -141 -111 -170 -151 -12 -17 -20 -21 -23 -12
-3 6 -9 10 -14 7 -4 -3 -11 2 -14 11 -3 8 -2 12 4 9 6 -3 10 -4 10 0 0 3 -10
10 -22 15 -17 6 -18 9 -6 9 9 1 16 9 16 19 0 9 0 22 2 27 7 27 -2 35 -39 35
-32 0 -44 -6 -75 -40 -20 -22 -36 -46 -36 -53 0 -30 37 -48 111 -54 54 -4 80
-11 96 -25 15 -15 41 -22 90 -25 50 -4 74 -11 91 -26 17 -16 40 -22 87 -25 46
-3 69 -9 81 -23 13 -14 31 -19 69 -19 39 0 60 -6 80 -22 18 -14 47 -23 84 -26
34 -3 60 -11 67 -20 7 -9 33 -17 70 -20 32 -2 64 -10 69 -17 6 -7 31 -14 56
-16 44 -4 46 -3 33 16 -9 13 -10 25 -4 35 14 22 12 30 -7 30 -16 1 -16 2 1 15
15 11 16 15 5 16 -8 1 -1 4 16 8 21 4 30 12 30 26 0 11 15 29 35 43 19 13 36
27 38 31 5 14 -49 -1 -55 -15 -3 -8 -10 -14 -17 -14 -6 0 -32 -18 -56 -41 -25
-22 -55 -48 -67 -56 -13 -8 -23 -24 -23 -34 0 -14 -7 -19 -25 -19 -30 0 -32
19 -7 57 9 15 12 24 5 20 -6 -4 -14 -4 -16 0 -8 13 16 40 38 44 12 3 20 12 20
24 0 11 15 29 35 43 42 28 50 43 18 35 -40 -11 -101 -54 -164 -117 l-61 -62
-18 26 c-11 14 -13 20 -5 13 13 -9 15 -6 15 18 0 19 -5 29 -15 29 -12 0 -13 2
-1 9 8 5 10 14 6 21 -5 9 -4 11 4 6 17 -11 53 4 47 19 -3 8 3 19 12 27 16 12
16 11 2 -7 -15 -20 -14 -20 8 -1 14 12 18 22 12 26 -6 4 0 12 15 20 35 19 31
31 -5 19 -16 -6 -30 -15 -30 -20 0 -5 -7 -9 -15 -9 -8 0 -33 -18 -57 -41 -24
-22 -51 -45 -61 -51 -10 -5 -26 -23 -37 -40 -17 -28 -19 -29 -28 -12 -5 11 -7
25 -4 33 3 10 0 11 -9 5 -12 -6 -12 -5 0 10 11 13 12 19 2 29 -10 9 -11 8 -6
-8 6 -16 5 -17 -4 -5 -8 11 -7 18 4 26 8 6 12 14 8 17 -3 4 5 7 18 7 14 1 32
11 44 28 15 21 15 24 2 13 -9 -7 -17 -10 -17 -5 1 17 27 44 42 44 17 0 44 27
36 36 -22 21 -248 -145 -248 -183 0 -7 -9 -13 -21 -13 -11 0 -18 4 -15 9 4 5
0 11 -6 14 -11 3 -11 9 0 26 10 17 10 21 0 21 -9 0 -8 3 2 10 12 8 12 10 -5
10 -18 1 -18 2 -4 13 9 7 14 17 12 24 -3 7 3 10 14 7 12 -3 27 5 43 23 14 15
18 22 10 16 -22 -20 -35 -15 -17 5 10 10 17 24 17 30 0 7 11 12 24 12 13 0 29
7 36 15 22 26 -25 18 -80 -13 -61 -35 -180 -139 -180 -158 0 -23 -36 -16 -47
9 -8 17 -7 26 5 37 11 10 12 15 4 18 -7 2 -10 8 -6 13 3 5 -1 9 -8 9 -7 1 -2
7 12 15 l25 14 -35 2 c-30 2 -27 3 14 8 29 4 51 12 54 20 3 9 0 11 -8 6 -9 -6
-9 -3 -1 14 7 11 16 21 22 21 6 0 7 -5 3 -12 -4 -7 -3 -8 5 -4 9 6 9 11 -1 24
-11 13 -11 15 3 10 11 -4 25 3 40 18 12 13 18 24 12 24 -6 0 -14 -6 -16 -12
-4 -10 -6 -10 -6 0 -1 18 -11 15 -74 -27z"/>
<path d="M4429 7845 c-1 -3 -2 -10 -3 -15 0 -6 -7 -15 -15 -19 -8 -5 -10 -14
-5 -22 6 -11 5 -12 -7 -2 -11 9 -20 8 -39 -2 -30 -17 -43 -19 -35 -5 4 6 -32
-8 -79 -32 -46 -23 -83 -45 -80 -49 2 -4 -1 -11 -7 -15 -8 -4 -9 -3 -5 4 11
18 1 15 -74 -23 -39 -19 -69 -40 -67 -46 1 -6 -4 -14 -12 -17 -8 -3 -11 0 -7
7 5 7 1 9 -9 4 -9 -3 -12 -9 -7 -12 5 -3 14 -16 21 -29 7 -13 17 -20 24 -16 7
4 9 4 5 -1 -4 -4 10 -33 32 -64 52 -74 91 -120 84 -100 -7 21 14 35 29 20 9
-9 8 -14 -3 -21 -24 -15 2 -11 30 5 24 14 24 14 3 15 -25 0 -39 15 -23 25 16
10 62 -4 55 -16 -4 -5 50 18 119 53 69 34 123 64 121 66 -2 2 -17 -4 -35 -13
-33 -17 -47 -15 -35 4 3 6 10 9 15 6 5 -3 12 0 16 6 4 8 3 9 -4 5 -7 -4 -12
-2 -12 3 0 7 -23 11 -54 11 -30 0 -61 3 -70 6 -26 10 -18 24 12 19 15 -2 49
-6 75 -9 l48 -6 -25 43 -25 42 22 44 c12 24 27 42 32 41 33 -9 55 -26 55 -42
0 -11 4 -17 9 -14 5 4 7 -3 4 -15 -5 -18 -3 -20 15 -14 17 5 21 3 16 -8 -3 -9
3 -16 15 -20 12 -3 19 -1 15 4 -3 5 2 9 10 9 10 0 13 -6 9 -17 -5 -15 -3 -16
7 -6 8 7 19 9 25 5 6 -4 2 1 -10 12 -11 10 -19 23 -17 27 1 5 -5 9 -13 9 -10
0 -12 6 -8 18 6 15 5 15 -11 3 -14 -12 -19 -12 -29 -1 -9 10 -9 11 1 6 6 -4
12 -5 12 -1 0 3 -11 10 -25 15 -14 5 -25 14 -25 20 0 6 4 9 9 6 22 -14 18 26
-5 51 -14 16 -22 22 -18 14 5 -9 3 -12 -5 -7 -6 4 -9 12 -5 17 3 5 0 16 -6 24
-12 15 -29 20 -31 10z"/>
<path d="M6818 7727 l-167 -50 40 -46 c22 -25 77 -90 122 -143 44 -53 85 -94
91 -91 5 4 1 9 -9 13 -15 5 -3 12 47 29 37 12 72 20 77 17 5 -3 14 0 20 8 7 8
24 17 38 21 26 6 25 7 -45 78 -50 51 -71 79 -70 95 1 12 5 22 9 22 4 0 9 10
13 23 5 21 7 20 41 -17 19 -21 32 -44 28 -50 -3 -6 -3 -8 1 -4 7 6 46 -26 46
-37 0 -3 11 -16 24 -28 14 -13 28 -35 31 -50 4 -15 11 -30 16 -33 5 -3 5 5 0
18 -8 22 -7 24 21 22 16 -1 28 2 26 7 -6 18 -214 249 -223 248 -5 0 -85 -24
-177 -52z"/>
<path d="M4935 7720 c5 -8 4 -11 -2 -7 -6 4 -52 -12 -103 -35 -90 -41 -91 -42
-66 -55 15 -8 26 -22 26 -34 0 -11 8 -22 18 -25 9 -3 25 -9 34 -14 9 -5 18 -6
21 -2 2 4 3 2 1 -4 -3 -14 32 -44 51 -44 8 0 20 9 27 20 7 11 16 20 20 20 14
0 8 -50 -8 -75 -9 -14 -14 -26 -10 -26 3 -1 10 -2 15 -3 5 0 13 -5 18 -10 4
-5 -3 -6 -18 -3 -22 6 -28 3 -32 -14 -4 -13 -1 -19 6 -16 79 32 96 40 92 47
-6 10 24 22 36 14 5 -3 8 0 7 6 -2 6 12 18 31 26 30 13 32 13 21 -2 -12 -13
-10 -14 13 -3 14 6 26 15 25 18 -2 18 3 31 13 31 6 0 9 -7 5 -15 -6 -18 -2
-19 25 -4 19 10 19 11 -7 42 -90 109 -131 144 -180 154 -27 6 -58 14 -68 18
-15 6 -17 5 -11 -5z"/>
<path d="M5622 7662 c-79 -31 -138 -58 -132 -60 5 -2 8 -8 4 -13 -5 -9 121
-169 134 -169 4 0 12 -10 17 -22 8 -18 17 -23 45 -21 28 2 31 1 15 -6 -11 -5
-15 -10 -8 -10 19 -1 43 11 38 19 -3 5 5 6 17 2 16 -4 19 -2 13 8 -5 9 -4 11
4 6 7 -5 55 9 108 30 53 21 90 40 82 43 -8 2 -30 23 -49 45 -69 80 -125 141
-149 160 l-23 19 23 13 c47 26 1 12 -139 -44z"/>
<path d="M15070 7673 c-51 -35 -70 -66 -49 -79 18 -11 31 7 17 24 -12 15 -11
16 5 3 14 -11 23 -12 43 -2 43 19 41 12 -3 -15 -33 -19 -42 -30 -39 -47 3 -16
10 -21 27 -20 l24 3 -21 -18 c-12 -9 -24 -29 -28 -44 -6 -26 -5 -27 20 -18 14
6 34 15 45 20 40 22 17 -1 -31 -31 -50 -31 -61 -41 -37 -36 6 1 11 -6 9 -15
-4 -22 11 -23 44 -2 13 9 27 14 30 11 3 -3 -12 -15 -34 -26 -52 -27 -57 -36
-26 -50 21 -9 32 -7 67 11 23 13 51 26 62 31 34 14 4 -9 -48 -36 l-49 -25 29
-15 c15 -8 34 -12 41 -10 7 3 11 -1 10 -7 -5 -22 20 -22 32 -1 9 17 8 20 -5
15 -30 -12 -14 13 20 32 37 20 113 113 82 101 -45 -18 -49 -18 -20 4 18 13 33
27 33 30 0 3 -11 12 -25 19 -15 8 -21 16 -14 20 6 4 -1 17 -20 33 -17 14 -31
29 -31 33 0 9 -119 124 -128 124 -4 0 -19 -8 -32 -17z"/>
<path d="M6378 7586 c-98 -33 -178 -64 -178 -69 0 -17 201 -241 220 -244 11
-1 50 8 86 22 37 14 75 25 85 25 21 0 89 30 89 40 0 3 -31 37 -70 76 -38 38
-70 75 -70 82 0 7 7 26 15 43 l16 30 52 -63 c29 -34 64 -75 79 -90 14 -16 24
-28 20 -28 -4 0 4 -7 16 -16 16 -11 30 -13 46 -7 23 8 19 14 -86 136 -64 74
-117 126 -126 126 -10 -1 -97 -29 -194 -63z"/>
<path d="M8630 7613 c-14 -3 -29 -9 -34 -14 -6 -5 -20 -9 -31 -9 -18 0 -25
-10 -37 -55 -15 -55 -15 -55 7 -55 36 0 38 -13 3 -24 -29 -10 -36 -19 -55 -76
-29 -89 -29 -100 5 -100 27 0 27 0 -8 -18 -28 -13 -38 -27 -51 -67 -32 -101
-32 -105 -4 -105 34 0 32 -18 -2 -22 -17 -2 -28 -9 -28 -18 0 -12 12 -14 60
-11 54 3 74 12 75 34 0 4 -10 7 -22 8 -22 1 -22 1 3 12 15 7 27 14 28 17 0 3
12 38 26 79 30 89 30 88 8 94 -14 4 -12 5 5 6 23 1 37 25 47 83 3 17 12 46 20
65 18 43 18 43 0 43 -18 0 -20 20 -2 21 6 1 33 3 60 5 28 3 47 0 47 -6 0 -5
-11 -10 -24 -10 -32 0 -41 -13 -69 -103 l-25 -77 24 0 c34 0 30 -16 -5 -23
-27 -6 -32 -14 -55 -87 -15 -45 -26 -83 -26 -86 0 -2 11 -4 25 -4 14 0 25 -4
25 -10 0 -5 -10 -10 -23 -10 -23 0 -47 -17 -47 -32 0 -4 24 -8 53 -8 40 0 58
5 70 18 22 24 21 32 0 32 -15 0 -14 2 4 15 16 11 83 157 83 180 0 2 -8 5 -17
8 -14 3 -12 6 10 15 16 7 27 19 27 31 0 11 5 23 10 26 6 3 10 16 10 28 0 13 9
40 20 62 24 48 25 45 -2 46 l-23 0 21 11 c27 12 49 51 41 71 -4 12 -21 15 -68
14 l-62 -2 -15 -45 c-17 -53 -18 -54 -31 -46 -6 4 -6 18 0 41 8 28 7 39 -5 50
-8 8 -16 14 -18 14 -2 -1 -14 -4 -28 -6z"/>
<path d="M8448 7592 c-23 -14 -31 -15 -47 -5 -32 20 -47 6 -64 -57 -22 -77
-22 -80 8 -80 35 0 31 -15 -6 -26 -27 -8 -34 -17 -46 -59 -28 -99 -28 -105 1
-105 36 0 33 -17 -4 -25 -16 -4 -30 -12 -30 -19 0 -6 21 -41 48 -77 39 -56 50
-65 67 -58 19 7 19 8 1 8 -13 1 -16 4 -8 14 5 6 19 42 30 80 16 55 17 67 6 67
-22 0 -16 18 8 22 11 2 22 10 23 18 2 9 12 48 23 88 18 64 19 72 5 72 -16 0
-9 14 8 16 5 1 13 2 19 3 5 0 7 7 4 15 -3 8 1 37 10 64 8 28 12 53 9 56 -10
10 -37 5 -65 -12z"/>
<path d="M8882 7565 c-16 -34 -16 -33 16 -37 24 -4 25 -5 7 -12 -42 -16 -48
-24 -76 -101 -15 -44 -27 -80 -26 -80 1 -1 13 -6 27 -12 22 -10 22 -12 5 -12
-34 -2 -45 -15 -75 -96 -30 -79 -30 -95 -4 -95 26 0 14 -17 -16 -23 -18 -4
-30 -13 -30 -22 0 -23 94 -18 122 7 l22 19 -22 6 -22 5 24 19 c13 10 36 49 51
86 15 38 31 73 36 79 6 8 2 14 -13 19 -17 5 -19 8 -8 12 21 6 43 39 70 108 13
33 28 66 33 73 6 8 5 12 -3 12 -6 0 -31 16 -54 35 -24 19 -45 35 -48 35 -3 0
-10 -11 -16 -25z"/>
<path d="M8195 7568 c-41 -15 -50 -26 -63 -80 -19 -77 -17 -88 21 -89 l32 -1
-32 -9 c-18 -5 -34 -13 -37 -18 -3 -4 17 -32 45 -61 28 -29 48 -59 45 -66 -7
-18 2 -17 34 1 19 11 21 14 7 15 -16 0 -16 2 -1 25 9 14 14 25 11 25 -3 0 1
23 8 50 11 43 11 50 -1 50 -8 0 -14 5 -14 10 0 6 8 10 18 10 14 0 21 13 30 58
17 81 16 82 -18 78 -17 -2 -33 0 -36 5 -6 11 -11 10 -49 -3z"/>
<path d="M12217 7531 c-120 -85 -145 -121 -113 -163 9 -13 27 -18 60 -18 33 0
53 -6 68 -20 15 -13 36 -20 64 -20 25 0 47 -6 54 -15 8 -9 30 -15 57 -15 30 0
45 -5 49 -15 4 -10 19 -15 43 -14 20 1 28 3 19 6 -10 2 -15 10 -11 19 3 8 -1
14 -8 14 -9 0 -7 5 5 11 14 9 16 13 5 20 -11 6 -9 12 5 28 11 12 25 21 33 21
7 0 12 3 11 8 -4 13 23 52 36 52 8 0 19 6 25 14 10 12 8 13 -11 9 -44 -12
-178 -125 -178 -151 0 -31 -25 -3 -26 29 0 50 6 69 25 69 9 0 22 13 29 28 7
16 24 34 38 41 15 6 24 14 21 17 -19 19 -207 -131 -193 -154 4 -7 3 -12 -2
-12 -12 0 -25 47 -17 60 3 4 0 10 -6 12 -17 6 1 37 24 40 12 2 22 8 22 13 1
20 26 55 39 55 8 0 20 7 27 17 13 15 11 16 -16 9 -16 -4 -32 -11 -35 -14 -3
-4 -24 -20 -47 -36 -24 -16 -40 -32 -37 -37 3 -5 -1 -9 -9 -9 -17 0 -70 -54
-61 -63 3 -3 -3 -5 -14 -4 -11 0 -18 6 -14 11 11 19 12 67 1 61 -6 -4 -5 2 3
14 7 12 20 21 28 21 17 0 45 39 42 56 -1 7 9 15 23 18 14 4 25 11 25 16 0 19
-27 10 -83 -29z"/>
<path d="M3745 7486 c-71 -40 -176 -98 -232 -130 l-102 -57 86 -114 c48 -63
90 -115 94 -115 7 0 97 48 259 138 30 17 56 35 58 40 4 14 -48 72 -64 72 -9 0
-11 11 -8 36 5 38 30 94 42 94 18 0 105 -124 94 -135 -3 -3 2 -3 12 1 14 5 17
4 12 -4 -10 -17 25 -15 48 3 18 14 16 18 -40 92 -32 43 -62 83 -66 88 -5 6
-17 22 -29 38 -11 15 -23 27 -27 27 -4 0 -65 -33 -137 -74z"/>
<path d="M8035 7540 c-4 -6 -10 -8 -15 -5 -4 3 -13 -2 -20 -10 -7 -8 -19 -15
-26 -15 -15 0 -54 -30 -54 -42 0 -5 8 -8 18 -9 14 0 14 -2 -3 -9 -19 -8 -18
-9 5 -11 14 -1 31 -2 38 -2 8 1 11 -5 8 -14 -3 -8 -1 -11 4 -8 6 4 26 -2 44
-13 31 -19 60 -16 55 4 -2 5 3 33 9 62 18 78 17 82 -22 82 -19 0 -38 -5 -41
-10z"/>
<path d="M4379 7460 c-79 -39 -118 -65 -121 -78 -4 -15 -2 -19 8 -15 8 3 14
11 14 17 0 7 11 18 25 24 33 15 44 15 25 -1 -8 -7 -15 -21 -15 -32 -1 -11 -4
-35 -8 -52 -7 -33 -19 -39 -69 -34 -27 3 -22 -9 37 -82 30 -37 58 -75 63 -84
9 -15 26 -8 148 51 120 59 136 69 117 77 -13 4 -23 12 -23 17 0 11 47 52 60
52 14 0 0 31 -27 60 -16 17 -22 33 -19 50 3 14 3 19 0 13 -9 -20 -23 -15 -51
17 -13 17 -35 30 -46 30 -22 1 -22 1 -3 15 36 27 2 14 -115 -45z"/>
<path d="M5227 7494 c-3 -4 -42 -21 -85 -39 -44 -18 -100 -42 -125 -55 -46
-23 -66 -56 -45 -75 8 -7 9 -6 4 3 -4 6 -3 12 2 12 6 0 12 -7 16 -15 3 -8 9
-14 13 -13 4 2 10 -1 12 -7 2 -5 10 -19 17 -30 17 -24 18 -39 2 -29 -7 4 -5
-2 6 -14 10 -12 22 -19 26 -17 16 10 40 -7 40 -27 0 -18 -2 -19 -17 -7 -9 8
-4 -3 11 -23 16 -21 29 -38 31 -38 15 0 65 24 65 32 0 5 4 6 10 3 6 -3 7 1 4
9 -4 11 0 16 10 16 9 0 16 5 16 10 0 6 8 10 18 10 10 0 23 5 29 11 7 7 13 7
17 1 3 -5 -13 -17 -35 -26 -23 -9 -39 -19 -37 -22 3 -2 29 7 59 20 30 14 50
25 45 25 -5 1 -3 8 5 17 8 10 22 14 41 10 15 -3 30 -1 33 4 3 6 -1 7 -10 4
-11 -5 -14 -2 -9 9 3 9 12 13 19 11 25 -10 26 16 1 43 -15 15 -26 31 -26 35 0
5 -7 8 -17 8 -9 0 -13 3 -10 6 7 8 -16 39 -74 102 -40 42 -50 48 -62 36z"/>
<path d="M9001 7446 c-30 -68 -36 -106 -17 -106 9 0 16 -4 16 -10 0 -5 -8 -10
-19 -10 -24 0 -33 -12 -64 -93 -31 -77 -33 -97 -12 -97 8 0 15 -4 15 -10 0 -5
-8 -10 -18 -10 -19 0 -42 -18 -42 -32 0 -4 20 -8 45 -8 31 0 51 6 64 19 20 20
20 20 -2 27 l-22 7 21 9 c20 9 32 32 81 143 9 22 19 43 21 48 2 4 -4 7 -13 7
-13 0 -11 5 8 23 22 21 37 46 43 75 1 8 -10 18 -26 23 -16 6 -31 17 -34 25
-10 25 -25 15 -45 -30z"/>
<path d="M5935 7420 c-22 -10 -47 -19 -55 -19 -8 -1 -28 -8 -44 -16 -15 -8
-33 -15 -40 -15 -6 0 -26 -9 -44 -20 -30 -18 -32 -23 -20 -37 9 -12 9 -15 1
-9 -21 12 -15 -10 9 -30 13 -12 18 -13 13 -4 -8 13 -6 13 8 1 9 -7 14 -17 11
-22 -3 -5 0 -8 8 -7 7 2 13 -6 13 -17 0 -13 6 -19 17 -17 8 1 18 -5 22 -13 3
-9 2 -13 -4 -10 -21 13 -9 -9 31 -56 44 -53 54 -57 79 -34 10 9 32 17 50 20
44 5 130 37 130 48 0 4 5 5 10 2 6 -3 10 -1 10 4 0 6 6 11 13 11 7 0 21 6 32
13 17 13 10 22 -90 130 -59 65 -110 117 -114 116 -3 0 -24 -9 -46 -19z"/>
<path d="M9397 7401 c-21 -36 -22 -51 -1 -51 9 0 12 5 8 11 -4 7 -1 10 6 7 27
-9 21 -28 -10 -34 l-31 -7 22 -23 c12 -13 18 -24 12 -24 -6 0 -16 7 -23 15 -7
8 -17 12 -22 9 -5 -3 5 -19 24 -35 38 -32 30 -39 -11 -10 l-27 20 -32 -65
c-18 -35 -32 -67 -32 -69 0 -3 9 -5 21 -5 11 0 17 -4 14 -10 -3 -5 -14 -10
-25 -10 -15 0 -30 -18 -30 -36 0 -2 17 -4 38 -4 25 0 43 7 55 20 14 17 14 20
2 20 -20 0 -19 19 1 27 8 3 33 42 56 87 22 44 46 84 52 88 7 5 6 8 -4 8 -9 0
-22 -6 -30 -12 -9 -9 -8 -4 3 13 15 25 15 28 -4 45 -12 11 -17 24 -13 36 8 26
1 22 -19 -11z"/>
<path d="M9120 7385 c-13 -34 -14 -32 13 -40 21 -7 20 -8 -8 -14 -27 -6 -34
-16 -66 -96 -32 -82 -34 -90 -17 -93 23 -4 24 -22 0 -22 -19 0 -42 -18 -42
-32 0 -4 20 -8 45 -8 32 0 51 6 65 20 l20 20 -20 0 c-11 0 -20 5 -20 10 0 6 7
10 15 10 10 0 31 33 56 87 22 48 46 91 52 95 8 5 4 8 -10 8 -25 0 -31 17 -9
22 9 2 0 13 -25 31 l-39 28 -10 -26z"/>
<path d="M12742 7355 c-28 -20 -52 -40 -52 -45 0 -6 -6 -10 -12 -10 -18 -1
-50 -48 -43 -63 4 -6 -1 -3 -9 8 -9 11 -14 25 -12 32 3 7 1 13 -5 13 -6 0 -7
5 -4 10 4 6 11 8 16 5 5 -3 6 1 3 9 -9 24 -48 19 -74 -9 l-24 -25 21 -28 c15
-20 30 -28 61 -30 22 -2 46 -10 52 -18 7 -8 30 -14 51 -14 21 0 41 -4 44 -10
3 -5 17 -10 31 -10 22 0 24 3 18 28 -4 15 -7 29 -6 32 0 31 5 40 20 40 9 0 23
13 30 30 8 17 17 28 20 26 4 -2 16 6 27 16 20 20 20 20 -5 13 -51 -15 -172
-119 -163 -141 3 -8 0 -14 -6 -14 -6 0 -12 8 -12 18 -4 62 -3 67 21 79 14 7
25 17 25 22 0 13 26 42 51 58 14 9 15 12 4 12 -8 1 -39 -15 -68 -34z"/>
<path d="M12944 7309 c-58 -36 -137 -111 -126 -118 4 -4 12 -15 18 -26 7 -13
24 -21 48 -23 29 -3 41 -10 59 -37 23 -37 32 -42 42 -24 4 6 -1 17 -11 24 -11
8 -14 15 -8 15 8 0 9 13 4 40 -5 26 -4 37 3 33 6 -4 8 0 4 10 -5 13 -1 16 16
14 16 -1 22 3 22 17 0 11 8 20 20 22 11 2 25 10 31 19 6 8 18 13 27 9 10 -4
15 0 14 13 -1 11 4 17 13 15 12 -3 12 -1 3 9 -10 10 -22 7 -58 -12 -69 -36
-177 -129 -171 -146 3 -8 1 -11 -4 -8 -5 3 -8 20 -6 38 3 18 5 35 5 40 1 4 8
7 16 7 9 0 18 8 22 18 3 9 22 31 42 49 46 41 38 41 -25 2z"/>
<path d="M9197 7236 c-42 -97 -42 -96 -22 -96 8 0 15 -4 15 -10 0 -5 -9 -10
-20 -10 -10 0 -24 -9 -30 -20 -10 -19 -8 -20 32 -20 31 0 48 6 61 20 14 17 14
20 2 20 -19 0 -19 16 0 23 8 4 24 25 36 49 22 43 43 106 32 95 -3 -4 -17 3
-31 13 -13 11 -28 20 -32 20 -4 0 -23 -38 -43 -84z"/>
<path d="M3842 7182 c-129 -71 -235 -131 -235 -134 -4 -13 133 -185 148 -185
10 0 12 4 6 10 -6 6 2 33 22 74 24 48 36 63 49 59 10 -2 21 0 24 5 3 5 14 9
25 9 23 0 27 -38 3 -47 -8 -3 -13 -12 -10 -19 4 -11 -6 -14 -42 -16 -45 -1
-45 -2 -9 -5 30 -3 37 -8 33 -19 -3 -9 -6 -18 -6 -20 0 -2 -16 -4 -35 -4 -38
0 -48 -19 -14 -27 12 -3 18 -11 15 -19 -4 -9 12 -5 44 11 47 24 68 41 35 29
-19 -8 -19 0 1 38 12 24 18 28 25 17 5 -8 6 -22 3 -33 -7 -22 -7 -22 90 29 53
28 71 42 59 46 -11 3 -13 8 -6 12 6 4 18 4 27 1 28 -11 36 6 13 29 -16 16 -35
22 -77 24 -30 1 -59 2 -63 2 -11 1 12 41 23 41 6 0 10 -7 10 -15 0 -11 11 -15
37 -15 l36 0 -22 24 c-22 23 -23 28 -11 75 6 27 18 52 26 55 8 3 13 2 10 -3
-3 -4 6 -19 19 -31 14 -13 25 -28 25 -33 0 -6 17 -31 37 -56 20 -25 38 -48 40
-50 3 -4 63 20 63 25 0 7 -104 139 -112 142 -5 2 -8 9 -8 15 0 7 -15 29 -33
50 l-32 38 -233 -129z"/>
<path d="M4567 7192 c-65 -32 -114 -62 -110 -67 4 -4 3 -5 -4 -1 -15 8 -83
-24 -83 -39 0 -18 43 -53 63 -50 9 2 17 -3 17 -11 0 -8 -5 -14 -10 -14 -7 0
-7 -7 0 -20 8 -15 18 -19 36 -16 39 7 67 -7 70 -37 1 -15 9 -34 17 -41 12 -13
17 -13 36 1 12 8 25 12 28 9 8 -7 8 -7 -42 -30 -22 -10 -37 -15 -33 -11 3 4
-10 24 -30 45 -20 22 -38 37 -40 35 -2 -2 11 -24 30 -49 25 -34 38 -45 53 -41
29 6 255 114 255 121 0 3 -7 4 -15 0 -8 -3 -15 -1 -15 3 0 9 24 21 41 21 6 0
7 -5 3 -12 -4 -6 -3 -9 2 -6 5 3 26 13 46 22 32 16 35 19 23 34 -8 9 -32 39
-54 67 -23 27 -41 61 -42 75 0 14 -3 19 -6 12 -3 -9 -13 -5 -35 13 -17 14 -42
25 -59 25 -18 0 -28 4 -24 10 8 14 14 16 -118 -48z"/>
<path d="M5400 7196 c-41 -18 -94 -42 -117 -54 -47 -24 -57 -27 -48 -12 3 6
-1 7 -9 4 -9 -3 -16 -10 -16 -15 0 -4 -7 -6 -15 -3 -10 4 -15 0 -15 -14 0 -24
35 -52 63 -52 13 0 17 -5 13 -15 -3 -8 -2 -15 2 -15 4 0 19 -11 34 -24 24 -21
26 -28 18 -56 -8 -26 -5 -37 12 -61 12 -16 26 -29 31 -29 19 0 127 53 127 62
0 5 4 7 9 3 10 -6 62 14 72 28 3 5 10 8 15 7 5 0 17 1 28 4 15 4 18 11 13 35
-4 17 -2 33 3 36 18 11 11 47 -15 81 -36 47 -111 124 -121 124 -5 0 -43 -15
-84 -34z"/>
<path d="M6837 7213 c-12 -13 -34 -18 -71 -19 -71 -1 -148 -37 -144 -68 3 -18
9 -21 41 -18 49 5 47 -9 -4 -30 -31 -13 -40 -22 -35 -34 3 -8 6 -22 6 -30 0
-11 9 -13 42 -8 36 6 40 5 35 -9 -4 -10 -2 -17 3 -17 6 0 10 12 10 28 0 18 3
23 9 14 6 -10 19 -3 52 29 24 23 43 49 41 57 -2 8 1 12 6 9 4 -4 16 3 25 14
16 18 16 19 -19 19 -31 0 -35 2 -24 14 6 8 17 13 24 10 18 -7 35 17 27 39 -6
17 -7 17 -24 0z"/>
<path d="M6442 7104 c-42 -15 -115 -77 -118 -101 -2 -14 5 -16 54 -13 40 2 42
-16 2 -25 -34 -7 -50 -29 -42 -57 5 -19 20 -20 66 -2 32 12 15 -16 -20 -32
-29 -14 -35 -22 -32 -43 2 -14 8 -25 13 -24 6 1 23 5 38 8 40 10 34 -12 -8
-32 -35 -17 -48 -54 -25 -68 6 -3 10 -1 10 4 0 6 12 11 26 11 16 0 34 10 46
25 11 14 23 25 28 25 12 0 70 -56 70 -68 0 -6 9 -10 20 -9 25 2 26 13 3 22
-15 5 -13 9 15 24 33 17 33 17 14 39 -11 12 -22 18 -26 15 -4 -4 -4 0 0 10 5
13 1 17 -21 17 -34 0 -24 16 15 25 31 7 35 19 24 63 -6 19 -11 22 -35 17 -40
-9 -37 10 4 21 17 6 32 15 31 22 -1 7 -2 26 -2 42 -2 30 -3 31 -37 24 -43 -8
-48 12 -5 21 24 5 30 12 30 31 0 26 -5 26 -56 7 -7 -2 -15 0 -19 6 -8 14 -10
13 -63 -5z"/>
<path d="M11635 7104 c-56 -16 -171 -36 -225 -39 -19 -1 -39 -3 -45 -5 -5 -1
-23 -2 -39 -1 -29 1 -29 2 -10 16 18 14 17 14 -8 4 -16 -7 -28 -16 -28 -20 0
-4 -8 -5 -19 -2 -28 7 -134 -46 -127 -63 4 -11 1 -12 -14 -4 -30 16 -35 12
-10 -10 13 -11 31 -20 42 -20 24 0 23 -9 -6 -67 -18 -34 -38 -56 -73 -77 l-47
-28 32 -27 c38 -31 39 -37 11 -51 -15 -9 -24 -8 -35 1 -11 9 -18 9 -26 1 -19
-19 0 -41 42 -48 45 -7 50 -16 18 -38 l-21 -15 24 -20 c18 -14 28 -17 42 -9
17 9 17 11 3 33 -20 31 -20 30 8 48 22 15 25 14 46 -5 12 -12 25 -17 29 -11 3
5 15 13 26 17 19 7 19 8 -4 27 -19 16 -21 22 -11 34 17 20 33 19 55 -5 16 -18
19 -18 41 -3 13 8 24 22 24 29 0 8 6 14 14 14 10 0 16 13 18 37 2 27 8 39 21
41 14 3 18 -1 13 -15 -3 -10 -2 -24 3 -31 6 -10 12 0 21 30 10 35 22 49 53 67
34 20 42 21 70 10 18 -7 33 -13 35 -14 1 -1 -6 -21 -16 -43 -19 -41 -61 -79
-138 -122 -21 -11 -30 -19 -20 -15 12 3 28 -3 42 -16 l24 -22 -21 -15 c-18
-12 -22 -12 -40 4 -18 17 -19 16 -19 -15 0 -59 -55 -88 -88 -47 l-19 25 -30
-27 c-16 -15 -21 -21 -11 -13 13 10 21 11 31 3 7 -6 37 -16 65 -23 29 -6 52
-15 52 -21 0 -6 11 -3 24 5 21 14 25 14 41 -1 10 -9 15 -11 11 -4 -5 7 -1 12
10 12 14 0 14 3 4 15 -10 13 -10 19 5 35 10 11 24 20 32 20 7 0 13 5 13 11 0
5 5 7 10 4 6 -4 8 -10 6 -14 -3 -4 -1 -13 5 -21 6 -10 9 -11 9 -2 0 6 7 12 16
12 15 0 15 2 1 24 -14 21 -14 26 -2 36 11 9 20 8 40 -8 24 -19 27 -20 45 -4
19 16 19 17 -3 40 l-22 25 33 -5 c28 -4 32 -2 32 18 0 14 8 25 22 30 12 3 46
22 75 41 53 33 70 38 105 31 27 -6 29 -13 13 -44 -8 -16 -15 -36 -15 -45 0 -8
-16 -22 -36 -29 -28 -11 -32 -16 -21 -25 16 -12 19 -45 4 -45 -6 0 -18 7 -28
16 -16 14 -20 14 -39 1 -18 -12 -19 -16 -5 -27 11 -9 15 -9 15 -1 0 9 6 9 22
0 18 -10 19 -13 8 -17 -8 -3 -35 -19 -60 -36 -25 -17 -47 -32 -50 -34 -2 -2 2
-8 10 -13 12 -9 12 -10 -3 -5 -19 6 -57 -9 -69 -28 -4 -6 8 -15 30 -23 37 -12
58 -4 84 32 4 6 8 7 8 2 0 -4 14 6 31 23 34 32 54 38 62 18 3 -8 6 -6 6 5 1 9
5 17 11 17 5 0 7 6 4 14 -7 18 23 28 46 16 25 -14 30 -13 24 5 -4 8 -1 15 6
15 9 0 10 3 1 14 -9 11 -8 15 5 20 9 3 19 4 24 1 4 -3 10 4 13 15 7 26 27 26
27 0 0 -19 1 -19 32 -2 18 10 35 29 38 43 5 22 70 69 95 69 53 0 34 -75 -31
-116 -30 -19 -40 -31 -37 -45 6 -20 -21 -48 -72 -76 -16 -9 -36 -24 -42 -33
-7 -10 -25 -21 -40 -25 -25 -6 -26 -8 -10 -17 10 -5 27 -8 38 -5 10 3 17 1 13
-4 -14 -24 27 -5 66 31 45 39 60 47 60 32 0 -5 7 -9 15 -9 10 0 12 4 5 12 -7
8 -4 18 10 30 16 14 23 15 34 6 8 -7 21 -9 27 -5 9 5 5 10 -12 17 -20 8 -21
11 -6 14 9 3 17 9 17 14 0 5 6 9 14 9 8 0 16 5 18 12 3 7 22 11 47 10 38 -2
43 1 52 28 14 39 92 84 120 69 18 -9 18 -12 4 -45 -8 -20 -12 -40 -9 -45 3 -5
-1 -6 -8 -4 -8 3 -22 -1 -33 -9 -11 -9 -14 -16 -7 -16 17 0 15 -20 -3 -20 -8
0 -15 5 -15 11 0 5 -4 8 -10 4 -5 -3 -7 -12 -4 -19 3 -7 -2 -19 -11 -26 -14
-11 -20 -11 -37 -1 -13 8 -24 9 -30 3 -7 -7 -4 -10 8 -9 31 3 22 -27 -14 -44
-20 -11 -28 -19 -20 -22 9 -4 7 -6 -4 -6 -9 -1 -24 -8 -33 -17 -12 -13 -19
-14 -28 -5 -18 18 -28 13 -15 -8 7 -11 14 -19 17 -18 4 1 16 -5 29 -12 20 -11
26 -10 41 3 10 9 25 16 35 16 9 0 14 5 11 10 -8 12 18 40 37 40 7 0 19 9 26
20 9 16 19 19 39 14 21 -6 25 -4 21 8 -10 24 57 73 84 63 8 -3 29 11 49 33
l35 39 -63 41 c-35 23 -67 42 -73 42 -5 0 -10 5 -10 10 0 6 -7 10 -15 10 -8 0
-15 3 -15 8 0 4 -22 18 -49 31 l-49 24 -30 -22 c-37 -26 -38 -26 -45 -1 -3 13
1 21 14 25 33 11 20 25 -23 26 -24 1 -56 4 -73 8 l-30 7 34 12 c49 18 31 26
-29 13 -28 -6 -67 -11 -85 -11 -19 0 -35 -4 -35 -8 0 -8 -43 -32 -57 -32 -3 0
-3 6 0 14 4 9 -1 16 -11 18 -18 4 89 58 114 58 7 0 15 4 18 9 4 5 -2 7 -11 5
-139 -29 -173 -33 -221 -26 l-53 7 76 29 c41 16 74 31 72 33 -2 2 -43 -6 -91
-17 -48 -11 -105 -20 -128 -20 -26 0 -45 -6 -53 -16 -9 -13 -20 -15 -48 -10
-39 7 -48 23 -19 32 36 12 197 77 202 82 3 3 -8 2 -25 -2 -143 -35 -260 -55
-269 -46 -5 5 -19 10 -30 10 -20 0 124 75 174 91 46 14 -11 8 -65 -7z"/>
<path d="M2680 7093 c-97 -35 -189 -80 -435 -216 -310 -171 -1061 -570 -1480
-787 -88 -46 -188 -98 -222 -116 -34 -18 -123 -65 -197 -104 -75 -40 -136 -76
-136 -81 0 -10 324 -12 512 -2 124 6 128 7 128 28 0 17 -7 24 -30 29 -18 3
-30 12 -30 21 0 18 -4 18 45 0 48 -17 133 -20 99 -4 -18 9 -20 16 -14 55 4 24
10 47 14 51 12 13 40 -12 64 -58 12 -24 27 -48 31 -52 5 -5 49 -5 97 -1 62 5
80 10 59 14 -29 5 -29 6 -10 18 14 10 16 15 7 19 -10 4 -10 8 0 21 7 9 8 13 3
10 -6 -4 -17 -3 -24 1 -7 5 -29 3 -49 -4 -26 -9 -41 -10 -53 -2 -28 17 -12 27
44 27 45 0 49 2 32 14 -11 8 -16 20 -12 29 5 14 1 15 -26 11 -18 -3 -38 -7
-45 -10 -23 -7 -12 11 24 36 19 14 44 33 56 42 11 10 24 16 28 13 10 -6 151
34 167 47 7 6 13 18 13 28 0 10 7 23 15 30 13 11 20 9 43 -13 l27 -26 63 16
c47 12 62 19 58 30 -4 8 -3 20 1 26 3 6 7 27 7 46 1 54 28 52 68 -3 17 -25 38
-46 45 -46 28 0 143 33 143 41 0 4 -9 10 -20 14 -13 4 -19 15 -18 33 0 15 -5
41 -12 58 -15 35 -8 64 14 64 8 0 40 -34 71 -75 30 -41 58 -75 61 -75 15 0
120 33 128 40 4 4 -3 19 -15 31 -13 13 -23 28 -21 33 7 20 -31 84 -52 90 -13
4 -17 9 -10 13 7 5 13 17 15 28 8 38 35 28 75 -27 21 -29 55 -74 76 -99 l38
-47 69 20 69 20 -17 29 c-9 16 -22 29 -28 29 -7 0 -12 10 -11 23 2 29 -42 105
-65 111 -17 4 -18 21 -1 74 6 22 32 13 55 -20 55 -78 160 -218 165 -218 3 0
34 7 69 16 l64 16 -16 32 c-9 17 -25 37 -35 44 -10 8 -17 19 -15 25 6 17 -55
126 -73 132 -11 3 -16 19 -18 50 -3 84 15 71 140 -100 40 -55 82 -113 94 -127
l21 -27 59 15 c32 9 61 17 63 19 6 7 -42 79 -62 94 -13 9 -15 17 -8 24 7 7 1
23 -20 53 -16 23 -29 47 -29 53 0 5 -14 19 -30 31 -17 12 -28 26 -24 31 6 11
-17 81 -31 91 -14 11 -1 10 28 -1 15 -6 76 -78 153 -181 70 -94 132 -168 138
-166 6 3 35 12 63 21 l53 16 -25 48 c-13 27 -31 51 -40 55 -9 3 -15 14 -13 23
3 22 -66 150 -93 172 -17 13 -19 21 -10 42 9 26 9 27 -42 35 l-52 8 58 4 c107
6 145 -15 288 -155 69 -67 131 -123 137 -123 6 0 17 -11 24 -24 7 -14 92 -107
188 -208 207 -217 329 -354 341 -385 6 -16 17 -23 35 -23 16 0 24 -5 21 -12
-2 -7 -16 -13 -31 -13 -16 1 -25 -4 -22 -11 2 -6 -1 -17 -7 -23 -22 -22 3 -22
42 0 53 30 55 62 6 109 -19 18 -31 38 -28 44 3 6 3 8 -1 5 -3 -3 -88 77 -189
178 -100 100 -187 183 -194 183 -7 0 -12 4 -10 8 1 5 -50 64 -113 132 -63 68
-137 149 -165 179 -27 31 -54 59 -60 63 -6 5 -6 8 0 8 5 0 0 7 -12 15 -11 8
-28 33 -37 55 -9 22 -19 40 -23 40 -5 0 -23 14 -42 30 -18 17 -42 30 -52 30
-10 0 -21 5 -24 10 -4 6 -32 8 -68 6 -40 -3 -55 -1 -42 4 22 10 0 12 -25 3z"/>
<path d="M4175 6999 c-49 -26 -89 -53 -87 -59 1 -6 -2 -9 -8 -5 -8 5 -266
-122 -289 -142 -3 -2 3 -11 12 -20 11 -11 17 -13 17 -5 0 8 8 10 24 6 28 -7
69 4 61 16 -3 4 -19 6 -36 3 -44 -7 -33 16 18 38 l41 17 -3 -30 c-3 -16 -12
-47 -21 -68 -13 -29 -22 -37 -37 -35 -17 4 -18 3 -4 -18 10 -15 23 -21 41 -19
24 3 26 0 26 -34 0 -20 9 -48 21 -65 l20 -29 192 97 c105 53 185 99 177 101
-8 3 -22 15 -31 26 -9 12 -31 37 -48 56 -35 40 -35 39 -19 91 12 43 22 48 38
20 5 -11 16 -25 23 -33 26 -27 87 -116 87 -127 0 -15 5 -14 41 4 19 10 27 20
22 28 -23 38 -128 169 -142 177 -9 5 -13 10 -8 10 4 0 0 11 -9 25 -9 14 -19
24 -23 24 -3 -1 -46 -23 -96 -50z"/>
<path d="M6166 7005 c-14 -8 -38 -27 -54 -43 -15 -16 -38 -33 -52 -37 -30 -9
-39 -21 -33 -46 4 -16 12 -17 49 -12 24 3 44 3 44 0 0 -4 -18 -16 -41 -27 -33
-17 -40 -25 -35 -43 3 -12 8 -42 12 -67 11 -71 18 -79 59 -70 19 4 36 6 36 4
1 -2 2 -8 3 -13 0 -5 4 -13 8 -17 4 -4 3 -13 -3 -21 -9 -10 -6 -13 17 -12 46
1 147 33 152 48 3 9 -1 11 -16 7 -11 -4 -23 -2 -27 4 -3 5 -2 10 2 10 5 0 17
6 27 13 13 10 16 20 10 41 -6 26 -10 28 -41 23 -39 -7 -36 8 4 18 36 9 43 21
29 51 -9 20 -16 23 -45 18 -43 -8 -34 12 10 21 28 6 30 9 23 38 -8 41 -8 41
-43 29 -19 -7 -33 -7 -36 -1 -5 8 6 14 63 34 12 4 9 40 -4 54 -10 11 -94 8
-118 -4z"/>
<path d="M10680 6999 c0 -21 -31 -92 -42 -97 -5 -2 -8 -10 -8 -18 0 -8 -4 -14
-9 -14 -5 0 -12 -8 -14 -17 -4 -17 -5 -17 -6 0 0 9 -6 17 -12 17 -5 0 -7 -5
-3 -12 5 -8 1 -9 -12 -5 -16 6 -15 4 4 -12 20 -17 21 -23 10 -41 -7 -11 -21
-23 -30 -26 -9 -3 -20 -19 -24 -37 -3 -17 -14 -37 -23 -44 -14 -10 -14 -14 -2
-25 12 -11 13 -10 8 5 -5 12 -1 17 13 17 19 0 19 -1 2 -35 -17 -35 -39 -49
-28 -17 5 14 4 14 -9 -2 -8 -11 -15 -24 -15 -29 0 -4 -4 -6 -9 -2 -11 6 -31
-25 -31 -47 1 -9 5 -7 14 5 12 15 14 15 19 3 4 -9 0 -19 -7 -23 -7 -5 -17 -39
-23 -78 l-11 -70 181 -182 c100 -101 185 -183 189 -183 5 0 8 7 8 15 0 19 24
19 43 0 8 -8 18 -11 21 -7 4 3 9 -4 13 -16 l6 -23 20 22 21 23 7 -25 7 -24 7
22 c5 16 14 22 29 19 11 -2 29 2 39 8 15 9 17 29 17 157 0 169 -3 175 -87 181
l-53 3 65 -65 c59 -60 65 -69 65 -108 0 -67 -25 -55 -141 66 l-104 109 -60 7
-60 7 93 -93 c50 -52 92 -97 92 -101 0 -4 -6 -7 -14 -7 -8 0 -16 -7 -20 -15
-3 -8 -16 -15 -30 -15 -18 0 -52 29 -133 115 -94 100 -113 115 -148 121 -22 3
-42 8 -44 10 -2 2 6 27 18 55 11 28 21 60 21 69 0 10 6 20 14 23 8 3 17 21 21
39 4 18 18 53 31 78 13 25 24 50 24 57 0 7 7 31 16 53 13 32 19 38 30 29 10
-8 24 -2 59 26 25 21 45 39 45 41 0 2 -13 1 -29 -2 -39 -8 -47 17 -16 51 52
55 55 83 10 83 -18 0 -25 -6 -25 -19z"/>
<path d="M4848 6961 c-54 -26 -95 -52 -90 -56 4 -5 2 -5 -5 -1 -15 8 -124 -45
-116 -57 3 -6 1 -7 -5 -4 -15 10 -43 -3 -35 -16 4 -6 0 -8 -11 -4 -19 8 -16 0
22 -50 13 -18 29 -30 35 -26 6 3 7 1 3 -5 -8 -13 100 -162 118 -162 10 0 328
143 369 166 17 10 12 19 -49 90 -106 125 -135 153 -153 147 -9 -2 -5 3 9 11
49 30 4 14 -92 -33z"/>
<path d="M8845 6949 c-164 -12 -385 -36 -390 -41 -3 -3 15 -47 39 -99 88 -189
196 -532 196 -622 0 -14 10 -31 23 -40 19 -14 19 -16 4 -16 -15 -1 -16 -7 -11
-41 7 -40 -10 -59 -19 -22 -3 10 -5 6 -6 -10 -1 -18 4 -28 13 -28 10 0 16 -13
18 -42 3 -37 6 -41 30 -42 22 -1 25 1 15 13 -10 12 -8 13 11 8 29 -7 59 2 42
13 -7 4 -9 16 -5 29 6 19 14 21 76 21 38 0 69 -4 69 -9 0 -4 -10 -21 -22 -36
l-22 -28 22 5 c12 4 22 2 22 -4 0 -6 7 -4 17 3 9 8 18 10 20 4 2 -6 48 -9 119
-8 108 3 116 1 121 -17 5 -19 13 -20 157 -19 83 1 216 5 296 9 l145 6 -125 2
c-114 2 -126 4 -126 20 0 17 11 18 158 15 94 -2 166 1 177 7 14 7 22 5 32 -7
11 -13 11 -17 2 -20 -20 -7 -15 -22 5 -18 9 2 32 4 50 4 19 1 31 5 27 11 -3 6
-1 10 4 10 6 0 23 18 37 40 32 48 44 51 44 9 0 -24 4 -30 15 -25 11 4 15 -1
15 -19 0 -22 4 -25 38 -25 20 0 44 5 52 10 13 8 13 10 -1 10 -34 0 -29 70 11
155 17 37 61 154 66 177 20 88 27 168 17 209 l-11 44 -1 -56 c0 -31 -8 -78
-16 -104 -8 -27 -12 -51 -10 -55 9 -14 -21 -40 -50 -44 -16 -2 -34 -5 -40 -6
-27 -6 -35 2 -33 30 1 17 6 30 11 30 5 0 6 11 3 25 -4 14 -4 36 0 49 5 23 6
23 51 10 75 -23 73 -16 -7 23 -62 30 -71 37 -55 43 18 7 21 16 19 70 -1 34 -5
64 -8 67 -3 3 -1 14 4 24 7 12 7 20 0 24 -6 4 -8 21 -4 41 5 27 3 35 -12 41
-10 4 -19 2 -22 -5 -5 -17 -22 -4 -22 18 0 20 -33 37 -38 20 -2 -6 -21 5 -43
25 -61 55 -64 41 -3 -16 33 -32 54 -60 54 -74 0 -12 9 -30 20 -40 20 -18 20
-17 20 10 0 22 3 26 11 18 20 -20 2 -63 -25 -63 -24 0 -36 -21 -36 -67 0 -32
-11 -29 -56 17 -21 22 -42 40 -46 40 -4 0 -13 -11 -20 -25 l-13 -24 -70 69
-69 70 17 35 c18 39 22 65 9 65 -5 0 -15 -18 -22 -40 -7 -22 -16 -40 -19 -40
-4 0 -36 27 -73 60 -62 57 -66 62 -58 90 7 23 5 30 -6 30 -8 0 -13 -3 -13 -7
5 -32 -3 -34 -31 -8 -21 20 -42 29 -72 32 -104 9 -584 10 -693 2z m983 -684
c15 -13 40 -35 56 -48 l30 -24 -53 -27 c-29 -14 -59 -26 -67 -26 -8 0 -23 -9
-34 -20 -11 -11 -28 -20 -37 -20 -10 0 -27 -7 -37 -15 -23 -17 -36 -19 -36 -5
0 6 7 10 16 10 8 0 12 5 9 10 -4 6 -3 10 2 8 4 -1 24 6 43 15 19 10 27 15 18
12 -10 -2 -18 0 -18 5 0 6 9 10 19 10 11 0 22 4 25 9 4 5 -4 7 -16 5 -17 -3
-15 -1 7 10 22 11 25 15 11 16 -25 0 -13 12 27 28 31 12 31 12 -14 7 -36 -5
-48 -2 -52 9 -4 11 2 18 19 22 19 5 22 9 13 20 -21 26 40 16 69 -11z"/>
<path d="M2852 6892 c19 -26 52 -72 73 -102 115 -164 138 -191 154 -185 9 4
28 9 44 12 15 3 30 9 33 14 9 14 -268 285 -304 297 l-34 11 34 -47z"/>
<path d="M5935 6900 c-4 -6 -11 -8 -16 -4 -13 8 -79 -34 -79 -51 0 -14 -102
-46 -110 -34 -3 5 -11 -1 -18 -11 -7 -11 -8 -20 -3 -20 5 0 11 -12 13 -27 3
-27 5 -28 48 -25 24 2 52 9 62 16 22 15 73 9 90 -11 10 -13 8 -14 -12 -11 -20
2 -26 -2 -28 -20 -2 -13 2 -30 8 -38 10 -11 9 -14 -3 -14 -9 0 -22 10 -28 23
-23 42 -39 46 -82 23 -22 -11 -39 -25 -38 -31 1 -5 7 -30 13 -54 l11 -43 44 6
c49 6 50 -5 2 -30 -22 -11 -29 -21 -27 -37 2 -18 8 -21 33 -18 17 1 42 9 56
17 15 7 59 22 99 33 83 23 85 24 77 45 -5 12 -12 14 -31 6 -14 -5 -28 -6 -30
-1 -7 11 4 21 25 21 28 0 29 12 12 104 l-17 87 -38 -6 c-46 -8 -49 5 -5 25 17
8 31 21 29 28 -1 7 -3 24 -4 37 -2 19 -8 25 -25 25 -12 0 -25 -5 -28 -10z"/>
<path d="M4232 6661 c-230 -117 -269 -139 -224 -128 27 6 52 -1 52 -14 0 -5
-12 -9 -26 -9 l-26 0 20 -32 c20 -32 68 -94 123 -160 l25 -31 37 18 c20 9 37
24 37 31 0 13 18 19 47 15 7 -1 69 27 139 62 l126 63 -65 78 -65 78 15 36 c14
33 14 35 -1 23 -9 -7 -16 -20 -16 -27 0 -17 -5 -17 -31 -3 -11 5 -39 11 -61
11 -39 0 -40 1 -22 15 10 8 27 12 37 9 9 -2 17 1 17 8 0 7 16 20 35 29 29 14
35 14 35 3 0 -8 9 -17 19 -21 11 -3 22 -13 25 -21 3 -9 11 -12 18 -8 8 5 9 2
5 -9 -8 -21 12 -67 29 -67 6 0 15 -11 18 -25 4 -14 11 -25 16 -25 6 0 10 -6
10 -14 0 -8 6 -16 13 -18 21 -8 67 -2 66 8 -2 12 -29 51 -29 41 0 -5 -11 4
-25 19 -13 14 -22 32 -18 38 4 6 -1 5 -10 -3 -15 -12 -17 -12 -11 3 4 11 1 16
-10 16 -9 0 -16 7 -16 16 0 9 5 12 13 8 8 -5 8 -3 -2 9 -7 9 -17 15 -21 12 -4
-3 -11 2 -14 11 -4 10 -2 13 7 8 6 -5 0 7 -14 26 -14 19 -30 35 -35 36 -5 1
-114 -51 -242 -115z"/>
<path d="M5635 6760 c-4 -6 -14 -10 -23 -9 -28 4 -71 -12 -66 -24 5 -16 -77
-50 -89 -38 -6 6 -21 4 -39 -5 -17 -9 -27 -18 -24 -21 3 -3 1 -13 -4 -23 -6
-11 -3 -26 10 -48 18 -29 21 -30 55 -21 50 14 55 4 11 -22 -36 -21 -44 -41
-27 -68 7 -11 15 -11 41 -2 61 21 70 6 15 -23 -36 -20 -39 -24 -29 -50 7 -19
30 -15 119 19 33 12 84 28 113 35 40 9 52 16 50 29 -4 17 -18 18 -53 6 -18 -6
-18 -5 3 13 12 11 27 22 32 24 5 2 2 29 -8 66 -17 66 -19 68 -76 46 -9 -3 -16
-1 -16 5 0 7 14 17 30 22 35 13 40 39 8 39 -17 0 -19 3 -10 12 17 17 15 48 -2
48 -8 0 -18 -5 -21 -10z"/>
<path d="M13850 6682 c0 -7 -3 -11 -7 -10 -7 1 -78 -6 -158 -17 -93 -13 -129
-15 -110 -6 14 7 2 8 -40 5 -45 -4 -56 -3 -45 5 11 9 4 10 -30 5 -25 -4 -49
-11 -55 -17 -7 -7 -4 -8 7 -4 10 3 20 1 24 -4 7 -12 137 -73 201 -95 22 -8 48
-12 56 -8 8 3 18 1 22 -5 4 -7 0 -8 -11 -4 -12 4 -15 3 -10 -6 5 -7 17 -11 27
-8 10 3 17 0 16 -7 -1 -6 8 -10 22 -8 14 1 22 -1 18 -4 -4 -4 36 -27 88 -50
93 -42 210 -72 240 -60 8 3 15 1 15 -4 0 -5 -8 -11 -17 -13 -10 -3 57 -5 149
-5 166 1 208 7 178 28 -38 26 -132 80 -140 80 -4 0 -10 4 -12 9 -5 15 -356
191 -381 191 -13 0 -28 5 -35 12 -9 9 -12 9 -12 0z"/>
<path d="M5045 6622 c-27 -16 -49 -34 -47 -40 1 -7 -8 -13 -20 -13 -17 -1 -18
-3 -6 -6 10 -2 28 3 40 11 53 37 66 18 49 -71 -5 -24 -5 -43 -1 -43 4 0 13
-14 20 -31 14 -32 29 -34 83 -14 29 12 19 -10 -15 -30 -19 -11 -27 -20 -20
-23 7 -2 22 4 32 13 10 9 24 15 31 13 6 -2 -5 -16 -25 -31 -38 -29 -40 -34
-28 -54 9 -14 47 -5 204 49 75 26 95 36 89 47 -7 11 -15 11 -42 2 -44 -15 -47
-8 -5 18 32 20 34 24 24 51 -11 32 -22 36 -62 20 -40 -15 -39 5 0 24 25 12 34
21 30 32 -3 9 -9 26 -12 37 -3 12 -16 30 -28 39 -21 15 -25 15 -45 2 -11 -8
-21 -21 -21 -27 0 -16 -91 -49 -105 -38 -5 5 -19 5 -30 0 -11 -4 -29 -8 -40
-8 -18 0 -18 1 5 19 14 11 31 25 38 31 7 6 16 8 19 5 3 -3 19 2 35 10 17 9 28
17 26 19 -5 5 -65 -16 -95 -33 -30 -17 -53 -15 -53 4 0 8 4 13 9 10 4 -3 16 3
26 14 26 29 1 26 -60 -8z"/>
<path d="M12691 6613 c-1 -7 -13 -13 -28 -13 -21 0 -24 -3 -15 -12 20 -20 14
-31 -13 -24 -20 5 -25 3 -25 -13 0 -27 -17 -36 -38 -19 -15 11 -16 11 -5 -3
11 -14 6 -21 -37 -50 -27 -19 -50 -37 -50 -40 0 -11 50 -20 70 -14 10 3 21 12
24 20 3 8 11 15 18 15 8 0 21 9 31 20 9 11 26 20 37 20 13 0 18 5 14 15 -4 9
0 15 10 15 9 0 16 4 16 10 0 5 12 13 26 16 17 4 23 11 20 21 -3 8 -6 17 -6 19
0 2 -9 4 -19 4 -11 0 -22 6 -24 13 -4 10 -6 10 -6 0z"/>
<path d="M3151 6564 c-24 -7 -46 -16 -49 -18 -2 -3 58 -99 134 -213 77 -114
141 -212 143 -217 2 -4 25 -41 52 -81 l48 -73 51 13 c45 12 51 12 46 -1 -4
-11 10 -6 46 13 35 18 56 37 62 55 9 25 4 34 -54 100 -118 134 -413 438 -424
437 -6 -1 -31 -7 -55 -15z"/>
<path d="M6675 6573 c-46 -10 -46 -10 -18 -70 14 -32 39 -83 55 -115 31 -61
115 -299 120 -341 2 -15 7 -29 11 -33 13 -13 7 -41 -14 -68 -15 -19 -16 -24
-5 -20 9 3 16 11 16 17 0 8 3 8 11 0 13 -13 4 -33 -17 -33 -17 0 -19 -16 -1
-24 6 -4 2 -4 -10 -2 -13 2 -26 0 -29 -5 -3 -5 28 -9 72 -9 l76 0 -16 25 c-16
24 -16 25 4 25 11 0 20 7 20 15 0 9 -9 15 -25 15 -30 0 -32 13 -4 39 13 12 17
21 10 26 -17 10 -13 20 16 57 21 25 22 29 5 14 -14 -12 -26 -16 -31 -10 -5 5
-28 68 -51 139 -24 72 -58 163 -77 204 -18 40 -33 77 -33 82 0 15 -45 78 -55
77 -5 0 -19 -2 -30 -5z"/>
<path d="M4738 6459 c-32 -16 -58 -34 -58 -40 0 -5 -4 -7 -10 -4 -5 3 -22 -1
-37 -10 -16 -9 -19 -13 -8 -9 33 11 69 14 98 8 25 -5 26 -7 12 -18 -33 -24 -7
-136 31 -136 25 0 63 23 57 34 -3 6 0 5 8 -2 12 -11 9 -17 -19 -40 -33 -27
-40 -46 -22 -57 10 -6 105 18 155 40 17 7 55 20 85 30 30 10 59 21 64 26 18
16 -3 22 -34 9 -44 -18 -47 -6 -5 20 45 28 39 36 -10 16 -48 -21 -52 -20 -30
4 10 11 24 20 32 20 32 0 -6 92 -45 110 -21 9 -27 8 -34 -4 -5 -9 -18 -16 -28
-16 -10 0 -22 -5 -25 -11 -4 -6 -14 -8 -22 -5 -8 3 -11 1 -8 -4 3 -6 2 -10 -4
-10 -5 0 -12 4 -16 9 -3 6 -22 4 -46 -4 -64 -23 -44 5 32 42 35 18 56 32 45
32 -10 1 -41 -10 -68 -24 -56 -28 -77 -25 -38 5 36 28 13 23 -52 -11z"/>
<path d="M7255 6480 c3 -5 1 -11 -4 -14 -6 -4 -5 -18 2 -35 6 -17 16 -27 21
-23 7 3 7 0 0 -9 -8 -10 -8 -22 1 -43 10 -24 13 -26 19 -11 3 10 9 15 12 12 3
-3 1 -13 -4 -23 -7 -12 -5 -33 8 -68 9 -28 25 -87 35 -131 10 -44 23 -83 28
-86 5 -4 4 -10 -3 -14 -7 -5 -8 -10 -2 -14 5 -3 12 -27 16 -53 l7 -48 -30 0
c-24 0 -29 -4 -28 -20 1 -18 8 -20 83 -20 117 0 264 12 259 21 -3 4 1 10 7 12
7 3 -29 6 -79 6 -76 1 -93 4 -93 16 0 8 -4 15 -10 15 -5 0 -10 -7 -10 -15 0
-8 -9 -15 -19 -15 -12 0 -20 7 -20 18 1 38 -9 95 -17 101 -5 3 -11 17 -12 31
-2 14 -13 52 -24 85 -12 33 -22 67 -23 75 -3 28 -28 100 -34 100 -3 0 -7 12
-8 27 0 15 -6 29 -12 31 -5 2 -7 10 -4 19 5 12 3 14 -8 8 -11 -6 -11 -5 -2 5
6 7 9 19 6 27 -5 12 -7 12 -14 1 -6 -9 -9 -5 -9 12 0 19 -6 26 -20 27 -11 1
-18 -2 -15 -7z"/>
<path d="M13010 6470 c-87 -18 -166 -54 -260 -119 -52 -36 -100 -70 -106 -76
-6 -6 -37 -28 -69 -50 -32 -22 -102 -72 -154 -111 -94 -70 -129 -82 -126 -43
1 10 12 30 24 43 l23 25 -92 90 c-51 50 -100 91 -110 91 -12 0 4 -21 51 -66
57 -56 66 -68 54 -80 -7 -8 -15 -19 -18 -26 -3 -8 -44 26 -104 85 -72 71 -105
97 -123 97 -22 0 -17 -8 47 -71 62 -60 71 -73 59 -85 -8 -7 -16 -19 -19 -26
-3 -8 -21 3 -51 32 -40 38 -44 46 -29 52 14 5 12 7 -9 7 -14 1 -34 -2 -43 -5
-14 -6 -14 -9 5 -29 18 -19 19 -23 6 -28 -13 -5 -16 -24 -16 -92 l0 -85 33 0
c18 0 38 5 45 12 9 9 17 9 35 -1 16 -9 54 -11 128 -7 57 3 111 5 119 6 13 0
13 1 0 10 -10 7 18 10 90 11 58 0 125 3 150 5 56 5 87 -5 50 -16 -22 -7 -21
-8 13 -9 25 -1 36 3 35 12 -3 14 48 22 65 10 18 -13 220 -4 280 12 15 4 27 3
27 -2 0 -10 238 -11 255 -1 6 3 67 4 137 2 70 -1 140 1 155 5 16 4 35 3 45 -3
22 -13 34 -1 18 19 -7 9 -11 18 -8 21 3 2 12 -6 20 -18 14 -22 20 -23 94 -17
44 3 82 3 86 0 4 -4 45 -4 90 0 91 6 165 1 174 -12 7 -12 224 -11 224 0 0 5 8
11 18 13 10 2 -2 11 -32 22 -48 18 -48 18 -86 -3 -54 -30 -69 -26 -34 10 23
24 35 29 59 25 27 -4 26 -3 -10 14 -41 19 -70 26 -48 12 8 -5 -2 -8 -24 -9
-36 -1 -36 -1 -14 11 20 11 21 14 6 19 -25 10 -32 8 -15 -4 12 -8 10 -9 -7 -4
-14 4 -23 2 -23 -4 0 -6 -4 -11 -10 -11 -5 0 -10 9 -10 20 0 14 5 18 18 14 14
-5 15 -4 2 5 -8 6 -23 8 -34 5 -11 -4 -16 -2 -12 4 6 10 -23 26 -32 17 -3 -3
1 -5 8 -5 7 0 11 -2 8 -5 -5 -5 -225 71 -238 82 -2 2 1 8 9 12 10 6 9 10 -5
15 -9 3 -19 4 -22 1 -3 -3 0 -5 7 -5 7 0 9 -5 6 -10 -4 -7 -14 -6 -28 2 -16
10 -75 12 -222 10 -110 -2 -211 -4 -225 -6 -14 -2 -43 -4 -65 -5 l-39 -1 59
-60 c56 -56 58 -61 42 -77 -15 -16 -18 -15 -38 3 -21 18 -21 18 -35 0 -14 -19
-14 -19 -38 3 l-24 22 -16 -23 -16 -22 -82 79 c-54 52 -63 59 -26 20 53 -57
55 -61 39 -77 -16 -16 -21 -13 -91 57 -41 41 -79 75 -85 75 -5 0 17 -24 49
-53 54 -48 58 -55 47 -75 -14 -25 -35 -19 -68 20 -11 13 -44 45 -74 73 l-54
50 59 -62 c56 -59 58 -62 43 -84 l-16 -22 -76 73 c-41 40 -75 77 -75 81 0 13
153 99 176 99 11 0 29 9 39 20 28 30 141 63 193 55 32 -5 42 -10 38 -21 -4
-11 0 -10 21 3 l26 17 -29 8 c-50 13 -147 17 -194 8z"/>
<path d="M5935 6379 c-407 -118 -1095 -334 -1190 -374 -57 -24 -150 -54 -215
-69 -36 -8 -72 -17 -81 -21 -12 -4 -19 4 -28 35 -7 23 -19 44 -27 47 -7 3 -11
10 -7 16 4 6 1 8 -8 5 -8 -3 -22 -9 -31 -13 -26 -10 -22 8 7 35 31 29 32 45 3
46 -13 0 -38 4 -55 8 -29 7 -33 5 -33 -13 0 -23 38 -102 54 -113 16 -11 26 -9
24 5 -2 7 7 12 22 12 25 0 25 -1 24 -87 l-1 -88 328 0 c180 0 334 -3 343 -6
10 -4 16 -1 16 9 0 22 21 26 143 26 59 0 113 3 119 7 7 4 77 11 157 14 l146 7
-142 1 c-108 2 -142 5 -140 15 1 6 7 15 12 19 6 5 109 8 230 7 210 0 220 1
236 20 21 26 29 26 31 4 0 -10 4 2 7 27 l6 45 136 3 137 3 4 -33 c3 -18 8 -41
13 -50 6 -16 1 -18 -35 -18 -32 0 -41 -3 -37 -14 3 -7 0 -19 -6 -25 -8 -8 24
-9 119 -4 133 6 177 13 84 13 l-53 0 23 20 c13 11 29 20 37 20 8 0 13 12 13
30 0 17 9 39 20 50 27 27 25 33 -7 26 -16 -3 -33 -3 -39 2 -7 4 -30 52 -52
107 -22 55 -55 133 -73 172 l-33 73 23 31 c13 17 21 32 19 34 -1 1 -111 -28
-243 -66z m156 -226 c22 -49 44 -95 49 -105 6 -11 5 -18 -6 -22 -20 -8 -219
-8 -227 0 -10 11 118 214 135 214 5 0 27 -39 49 -87z"/>
<path d="M3046 6407 c3 -8 -10 -25 -31 -41 -19 -15 -35 -31 -35 -36 0 -5 53
-89 118 -187 l119 -178 67 0 c48 0 69 -4 76 -15 14 -23 0 -32 -37 -25 -47 9
-76 -1 -64 -23 9 -17 25 -18 147 -14 49 2 55 26 12 48 -16 8 -26 19 -23 25 9
13 -50 104 -84 130 -14 12 -26 27 -26 34 0 21 -88 133 -108 138 -10 3 -17 11
-15 19 2 7 -12 31 -30 54 -36 44 -95 93 -86 71z"/>
<path d="M13319 6403 c-8 -10 -31 -30 -50 -46 l-34 -27 165 6 c91 4 167 8 169
10 2 1 -23 10 -55 20 -33 9 -63 20 -69 24 -8 6 -94 30 -107 30 -2 0 -10 -8
-19 -17z"/>
<path d="M2491 6371 c-12 -12 -23 -15 -28 -10 -6 6 -19 6 -32 1 -22 -8 -22 -9
-4 -29 17 -20 22 -21 72 -11 46 10 55 9 62 -5 5 -9 16 -23 25 -31 8 -9 13 -20
10 -25 -4 -5 0 -12 6 -15 7 -3 -12 -3 -43 0 -31 3 -59 2 -62 -3 -6 -10 223
-366 243 -378 13 -8 13 16 0 51 -11 27 -5 48 8 27 4 -6 7 17 7 53 0 55 -2 63
-17 58 -18 -5 -22 -1 -32 39 -8 34 15 38 38 6 8 -12 19 -18 26 -14 7 4 8 10 3
14 -5 3 -21 22 -36 43 -16 20 -38 39 -50 42 -17 4 -23 12 -22 33 0 21 -9 33
-36 51 -21 13 -49 46 -64 73 -28 53 -45 59 -74 30z"/>
<path d="M11205 6280 c49 -49 83 -90 75 -90 -8 0 -21 -9 -28 -20 -15 -24 -11
-26 -123 79 l-79 74 0 -42 c0 -23 7 -53 16 -67 10 -14 12 -24 6 -22 -12 4 -12
5 -12 -82 0 -58 3 -68 15 -64 10 4 15 0 15 -11 0 -9 -4 -13 -10 -10 -5 3 -10
-1 -10 -10 0 -9 5 -13 11 -10 6 4 13 -2 16 -14 9 -35 23 -23 23 20 0 22 4 38
9 35 4 -3 51 -6 105 -7 70 -1 96 -5 96 -14 0 -7 9 -15 20 -18 13 -3 20 0 20 9
0 22 16 16 28 -11 13 -29 62 -36 62 -9 0 12 5 14 18 8 9 -4 36 -9 60 -12 34
-3 42 -1 42 12 0 9 -7 16 -15 16 -8 0 -12 6 -10 13 3 7 29 13 65 15 55 3 60 1
60 -17 0 -14 -6 -21 -20 -21 -11 0 -20 6 -20 13 0 8 -3 7 -9 -3 -6 -8 -7 -18
-5 -22 6 -10 99 -10 133 -1 23 6 23 7 5 14 -13 5 -4 8 28 8 26 1 50 -3 53 -9
3 -5 26 -10 51 -10 l44 0 -1 48 c-3 78 -13 95 -110 195 -74 77 -99 97 -121 97
-27 0 -28 -1 -15 -22 8 -14 11 -38 8 -61 l-6 -38 -65 66 c-54 54 -70 65 -98
65 l-34 0 79 -76 c48 -46 73 -77 66 -80 -7 -3 -13 -11 -13 -19 0 -7 -6 -18
-13 -24 -11 -9 -37 13 -121 99 -98 100 -111 110 -144 110 l-36 0 51 -52 c46
-49 50 -56 46 -91 -3 -20 -9 -39 -13 -42 -5 -3 -51 40 -103 95 -91 97 -95 100
-138 100 l-44 0 90 -90z"/>
<path d="M2233 6312 c-29 -8 -53 -18 -53 -21 0 -3 9 -17 19 -30 18 -23 20 -24
65 -11 37 10 49 10 61 0 24 -20 18 -29 -24 -36 -21 -3 -44 -9 -50 -13 -8 -6
13 -48 70 -137 45 -71 84 -131 88 -134 3 -3 12 -17 19 -31 13 -25 16 -26 118
-27 108 -1 127 8 73 35 -13 7 -24 21 -24 31 -1 20 -43 92 -53 91 -23 -4 -33 3
-30 19 4 26 -42 90 -70 97 -17 4 -22 11 -17 23 5 19 -42 82 -62 82 -18 0 -36
27 -23 35 15 9 -17 45 -39 44 -9 -1 -40 -8 -68 -17z"/>
<path d="M4486 6305 c-11 -8 -27 -15 -36 -15 -9 0 -25 -9 -36 -21 -18 -20 -18
-20 11 -14 l30 6 -24 -20 c-13 -12 -30 -21 -38 -21 -12 0 -13 -11 -7 -57 3
-32 8 -60 11 -63 9 -10 73 34 73 52 0 11 5 16 11 13 6 -4 8 -13 5 -21 -3 -8 0
-25 7 -37 6 -12 12 -23 13 -24 1 -6 84 20 127 40 30 14 47 28 47 39 0 10 3 18
8 18 4 0 15 7 25 14 17 13 17 15 0 44 -13 23 -27 32 -56 36 -21 4 -43 3 -50
-1 -6 -4 -30 -8 -52 -9 -22 -1 -51 -5 -64 -9 -35 -12 -23 14 17 35 17 10 29
20 25 24 -10 10 -26 7 -47 -9z"/>
<path d="M10372 6251 c-20 -43 -30 -75 -26 -86 6 -14 4 -16 -6 -10 -10 6 -12
4 -8 -7 7 -17 -25 -72 -35 -62 -19 19 -54 -56 -42 -88 7 -16 230 -22 258 -6
11 5 62 10 113 10 52 -1 94 3 94 8 0 20 -13 40 -27 40 -10 0 -13 -6 -9 -16 4
-9 2 -13 -5 -8 -6 4 -15 0 -20 -7 -5 -8 -9 -9 -9 -4 0 16 -230 246 -239 240
-5 -3 -5 11 -1 30 12 54 -2 41 -38 -34z"/>
<path d="M2870 6292 c0 -6 8 -18 17 -27 13 -14 17 -36 17 -101 1 -46 4 -84 8
-84 4 0 7 -12 7 -27 -1 -33 6 -82 13 -88 2 -3 19 -1 36 5 23 6 40 5 60 -6 15
-7 35 -14 44 -14 31 0 28 -18 -5 -23 -36 -5 -59 1 -52 14 7 11 -40 23 -54 14
-17 -10 16 -65 39 -65 11 0 20 -4 20 -10 0 -6 32 -10 75 -10 43 0 75 4 75 10
0 6 7 10 16 10 13 0 10 6 -10 25 -15 14 -32 25 -38 25 -5 0 -7 7 -4 16 3 9 -6
31 -22 52 -36 49 -44 57 -64 65 -10 3 -18 14 -18 24 -1 10 -21 41 -45 68 l-45
50 0 -30 c-1 -37 -14 -17 -24 36 -6 34 -46 96 -46 71z"/>
<path d="M14570 6286 c-51 -18 -125 -61 -124 -72 0 -5 52 -35 115 -66 91 -46
108 -58 84 -58 -105 -1 -145 -35 -52 -44 78 -8 237 -4 237 6 0 5 10 3 22 -3
15 -8 54 -9 137 -3 64 4 157 7 207 5 69 -2 93 1 102 12 10 12 -1 20 -70 50
-97 42 -318 124 -436 161 -90 28 -166 33 -222 12z"/>
<path d="M1997 6255 c-59 -16 -61 -18 -48 -42 25 -43 24 -43 78 -29 29 8 54
11 57 8 13 -12 5 -22 -18 -22 -13 0 -38 -3 -55 -6 l-31 -7 25 -33 c14 -18 25
-35 25 -38 0 -2 31 -53 69 -113 l69 -108 87 -3 c48 -2 93 -1 101 2 19 7 7 33
-17 39 -13 4 -19 12 -18 24 4 27 -19 63 -47 73 -16 6 -24 17 -22 27 3 25 -31
73 -53 73 -22 0 -35 18 -22 31 12 12 -33 63 -65 73 -12 4 -20 12 -16 17 3 5 2
18 -1 29 -7 23 -28 24 -98 5z"/>
<path d="M15190 6240 c30 -17 59 -35 64 -40 6 -6 20 -10 33 -10 23 0 183 -75
183 -85 0 -3 -10 -10 -22 -14 -14 -6 120 -9 337 -8 l360 2 0 40 0 39 -155 23
c-229 33 -544 66 -755 78 l-100 6 55 -31z"/>
<path d="M1761 6194 c-30 -8 -57 -16 -59 -18 -4 -5 18 -45 107 -193 l74 -123
98 0 c54 0 100 4 103 9 3 5 -6 16 -19 25 -14 9 -23 21 -20 26 7 11 -20 54 -35
56 -6 1 -15 2 -21 3 -7 0 -9 11 -5 25 6 24 -12 47 -48 60 -12 4 -17 13 -13 26
5 19 -14 42 -45 53 -9 3 -18 18 -20 34 -4 34 -22 38 -97 17z"/>
<path d="M1522 6131 c-74 -22 -78 -24 -57 -44 8 -9 15 -18 15 -22 0 -3 26 -51
58 -106 l57 -99 110 0 110 0 -25 20 c-14 10 -25 25 -26 32 -3 34 -5 38 -23 38
-25 0 -36 17 -22 34 13 15 -2 32 -34 38 -12 2 -20 12 -21 23 -2 40 -4 48 -10
42 -15 -15 -41 13 -37 38 6 31 -5 31 -95 6z"/>
<path d="M1287 6067 c-47 -12 -76 -24 -74 -31 3 -6 10 -10 17 -8 6 1 10 -3 7
-10 -2 -7 2 -25 10 -40 11 -23 20 -28 51 -28 34 -1 36 -2 18 -15 -10 -8 -23
-12 -29 -8 -10 6 -10 4 12 -39 l14 -28 111 1 c77 0 104 3 89 9 -15 6 -23 18
-23 34 0 16 -5 23 -17 22 -13 -1 -18 6 -18 23 0 14 -7 26 -15 29 -40 11 -41
11 -30 31 8 17 6 20 -13 23 -15 2 -22 10 -22 25 0 12 -3 24 -5 26 -3 2 -40 -5
-83 -16z"/>
<path d="M1984 5829 c-5 -9 -53 -10 -175 -5 -117 5 -169 4 -169 -3 0 -7 -24
-11 -60 -11 -33 0 -60 4 -60 10 0 18 -119 12 -138 -7 -16 -15 13 -16 418 -10
638 10 980 20 938 27 -40 7 -364 3 -540 -7 -78 -4 -108 -3 -108 6 0 15 -97 15
-106 0z"/>
<path d="M16680 5579 c-106 -19 -150 -31 -150 -40 0 -5 8 -9 18 -9 11 0 13 -3
5 -8 -15 -10 6 -61 38 -91 25 -23 54 -25 182 -15 114 10 82 25 -41 20 l-107
-5 102 11 c123 12 130 32 10 24 l-82 -5 82 11 c99 12 102 32 4 24 l-66 -5 63
11 c71 12 87 34 17 24 -105 -15 -133 -14 -52 1 98 19 118 38 30 30 l-58 -6 47
12 c91 23 60 35 -42 16z"/>
<path d="M16937 5254 c-33 -8 -119 -25 -193 -38 -74 -13 -137 -26 -140 -28 -7
-7 24 -76 62 -140 26 -42 39 -55 51 -51 11 4 14 3 9 -5 -16 -26 44 -33 198
-21 194 14 207 16 220 30 8 8 5 9 -13 4 -36 -11 -224 -22 -245 -15 -11 4 25 9
81 12 64 4 112 12 132 23 18 9 31 19 28 22 -3 2 -36 0 -74 -6 -114 -17 -353
-26 -353 -12 0 7 31 11 98 11 125 0 261 17 290 36 36 23 21 27 -60 14 -40 -6
-129 -13 -198 -15 l-125 -4 156 18 c151 18 208 33 216 57 6 18 -26 25 -66 14
-63 -17 -362 -57 -366 -50 -3 4 21 11 53 15 89 10 317 54 349 66 25 9 26 11
10 21 -14 7 -37 6 -81 -6 -73 -18 -242 -46 -271 -45 -11 0 50 16 135 34 181
38 221 52 200 65 -19 12 -31 11 -103 -6z"/>
<path d="M18103 3852 c-34 -14 -60 -29 -57 -33 2 -4 -8 -8 -23 -7 -16 0 -90
-16 -166 -36 -155 -40 -175 -43 -158 -22 10 12 6 13 -25 6 -20 -5 -55 -7 -77
-4 -22 2 -77 -5 -121 -15 -45 -11 -96 -22 -114 -26 -23 -5 -32 -11 -28 -21 4
-11 -1 -13 -21 -8 -17 5 -24 3 -20 -3 9 -14 -61 -25 -104 -17 -24 4 -30 3 -20
-4 17 -12 2 -17 -76 -27 -29 -4 -53 -9 -53 -11 0 -20 140 -290 194 -374 104
-163 133 -196 204 -231 52 -27 76 -33 155 -37 100 -5 407 19 552 44 155 26
218 49 259 94 20 22 41 40 47 40 6 0 5 6 -3 14 -12 12 -25 10 -89 -11 -159
-52 -464 -93 -801 -109 -118 -5 -151 -4 -164 7 -15 12 -14 14 7 20 13 4 62 8
109 8 98 1 395 34 520 56 112 21 226 53 272 76 34 17 97 93 87 103 -2 2 -42
-9 -89 -24 -153 -52 -410 -95 -705 -120 -71 -6 -161 -13 -198 -16 -54 -5 -67
-3 -65 7 2 8 -5 13 -16 12 -10 0 -14 2 -10 7 5 4 77 13 159 19 355 28 653 84
775 146 28 14 57 39 69 58 30 49 27 61 -10 41 -114 -58 -404 -115 -824 -159
-185 -20 -245 -20 -245 0 0 8 2 15 4 15 23 0 332 35 436 50 221 31 421 80 512
126 32 16 55 38 73 67 14 24 25 46 25 50 0 3 -19 -3 -42 -13 -130 -57 -392
-114 -767 -166 -239 -33 -265 -35 -279 -20 -21 20 -29 18 233 56 365 51 591
105 706 167 42 23 89 81 89 111 0 6 -25 -1 -56 -15 -124 -56 -368 -113 -771
-179 -194 -31 -234 -35 -248 -24 -8 7 -14 14 -12 16 1 2 86 17 187 34 366 62
553 104 705 161 67 25 145 93 145 128 0 11 -1 20 -2 20 -2 -1 -31 -13 -65 -27z"/>
<path d="M15496 3522 c-3 -6 -21 -14 -39 -17 -17 -4 -38 -12 -46 -19 -14 -11
-82 -32 -141 -42 -19 -4 -39 -10 -45 -14 -5 -4 -27 -10 -48 -14 -20 -4 -46
-16 -56 -27 -15 -17 -23 -19 -39 -10 -11 6 -32 10 -46 9 -20 -2 -26 -9 -31
-39 -4 -21 -2 -47 4 -58 15 -28 16 -27 -30 -45 -71 -29 -90 -69 -37 -80 73
-15 356 -47 498 -56 91 -6 212 -15 270 -21 58 -5 170 -14 250 -19 276 -17 610
-58 765 -95 190 -45 447 -127 538 -172 27 -14 51 -22 54 -19 12 12 -88 60
-202 96 -69 22 -142 48 -163 59 -20 10 -77 26 -127 36 -49 10 -100 21 -113 26
-29 11 -252 44 -397 59 -60 6 -148 15 -195 21 -47 5 -111 9 -143 9 -31 0 -99
6 -150 14 -50 8 -128 17 -172 21 -44 4 -122 15 -174 26 -51 10 -108 19 -126
19 -18 0 -38 7 -45 15 -7 8 -21 15 -31 15 -10 0 -20 4 -24 9 -3 6 -27 13 -53
16 -69 10 -82 15 -82 31 0 12 7 14 33 8 50 -11 137 -10 137 2 0 5 -9 20 -21
33 -25 26 -24 28 18 34 36 6 49 -11 24 -29 -12 -10 -13 -15 -3 -27 9 -10 10
-17 2 -22 -20 -12 -10 -27 15 -21 14 4 25 2 25 -4 0 -5 5 -10 10 -10 6 0 9 3
9 8 -5 27 3 72 12 72 6 0 8 -17 5 -45 -3 -33 -1 -45 8 -45 15 0 30 56 19 73
-4 6 2 8 16 4 18 -4 20 -3 10 9 -9 11 -8 14 3 14 17 0 79 56 71 64 -4 3 0 6 8
6 8 0 20 -5 27 -12 15 -15 145 -14 150 2 3 7 10 6 22 -5 17 -16 18 -16 13 3
-7 27 26 81 54 88 12 3 46 -2 75 -12 29 -10 58 -18 63 -19 6 0 10 -16 10 -35
0 -23 5 -35 15 -36 9 0 10 1 3 3 -7 3 -13 5 -13 6 0 5 29 94 34 107 5 12 -2
15 -31 16 -21 0 -60 4 -86 9 -40 6 -50 5 -60 -9 -7 -10 -32 -20 -55 -23 -37
-5 -43 -3 -51 18 -9 22 -10 21 -8 -11 2 -34 1 -35 -39 -38 -28 -2 -54 4 -78
17 l-36 21 0 -25 c0 -26 -16 -43 -22 -23 -2 6 0 29 6 50 7 27 7 41 -1 49 -7 7
-13 7 -17 1z"/>
<path d="M17460 2779 c0 -8 -17 -10 -57 -6 l-58 5 45 -13 c250 -76 803 -104
990 -51 l55 16 -70 -6 c-38 -3 -127 -7 -197 -10 -102 -3 -126 -1 -122 9 2 7 0
24 -6 38 -9 22 -10 22 -5 -7 5 -27 3 -32 -17 -38 -39 -10 -157 -7 -297 9 -146
17 -204 29 -238 51 -16 10 -23 11 -23 3z"/>
<path d="M13238 1832 c-5 -16 -11 -20 -24 -15 -13 5 -15 3 -9 -7 11 -18 -46
-4 -61 15 -13 17 -25 9 -17 -11 5 -15 -42 -38 -58 -28 -5 3 -9 0 -9 -5 0 -16
-21 -13 -42 6 -10 9 -21 13 -25 9 -5 -4 0 -12 9 -17 24 -13 11 -39 -19 -39
-22 0 -24 -3 -19 -27 3 -16 3 -23 0 -16 -4 8 -12 9 -27 3 -47 -18 -62 -23 -69
-22 -5 1 -17 -7 -28 -18 -11 -11 -29 -20 -40 -20 -11 0 -20 -5 -20 -11 0 -5 5
-7 10 -4 6 3 10 2 10 -3 0 -14 -43 -23 -51 -11 -3 6 -8 2 -11 -9 -4 -14 -18
-22 -47 -27 -23 -4 -40 -9 -37 -13 3 -3 -2 -11 -12 -18 -16 -12 -16 -13 0 -19
10 -4 15 -11 12 -16 -3 -5 -14 -4 -24 1 -63 31 -59 32 -58 -2 1 -21 -6 -37
-20 -48 -12 -10 -18 -20 -15 -24 3 -3 0 -12 -7 -21 -7 -8 -8 -15 -2 -15 17 0
21 -38 4 -45 -8 -3 -12 -8 -8 -12 3 -3 22 2 42 13 35 19 36 19 49 0 12 -16 17
-17 30 -6 13 11 14 10 10 -3 -4 -8 -2 -18 4 -22 6 -3 11 -1 11 6 0 17 31 38
58 39 13 0 37 9 54 21 27 20 30 20 42 4 11 -15 13 -15 25 -1 8 9 20 16 27 16
8 0 14 4 14 9 0 6 16 7 37 4 27 -5 34 -3 29 6 -5 7 -15 10 -23 7 -8 -3 -11 -1
-8 4 3 6 15 10 25 10 14 0 18 5 13 16 -5 13 -2 15 16 9 12 -4 34 0 53 9 38 19
64 20 72 4 3 -7 3 -2 0 11 -4 15 -2 21 4 17 6 -3 12 -2 14 3 4 11 153 91 169
91 7 0 30 18 51 40 22 22 43 40 47 40 5 0 21 20 37 45 15 25 33 45 40 45 6 0
17 7 24 15 15 18 -1 20 -19 3 -11 -11 -12 -9 -6 10 6 20 3 22 -29 22 -39 0
-45 -7 -20 -25 21 -15 10 -59 -12 -51 -9 3 -12 1 -9 -5 9 -13 -48 -64 -105
-93 -51 -26 -110 -42 -110 -29 0 11 37 43 51 43 6 0 22 9 36 20 22 17 23 20 7
21 -16 0 -16 2 4 12 17 7 25 8 30 0 4 -7 17 0 33 18 26 28 26 29 5 30 -21 0
-21 0 2 9 27 11 29 40 3 40 -11 0 -23 5 -27 11 -4 6 -20 8 -39 5 -22 -5 -35
-2 -37 6 -3 7 -7 2 -10 -10z"/>
<path d="M96 741 c-3 -5 -24 -7 -46 -4 -26 4 -40 2 -40 -6 0 -6 11 -11 24 -11
14 0 37 -5 52 -10 19 -8 29 -8 34 0 4 6 12 -1 20 -16 13 -24 12 -27 -10 -44
-14 -11 -45 -24 -70 -30 -47 -12 -60 -23 -60 -52 0 -12 5 -15 17 -11 16 6 17
5 3 -12 -18 -23 -16 -21 93 38 48 27 87 52 87 57 0 4 11 11 25 14 14 4 25 10
25 14 0 4 10 18 21 32 11 14 17 19 13 11 -4 -9 -2 -12 6 -9 8 2 16 10 18 16 4
12 -19 14 -135 16 -22 1 -45 4 -49 9 -10 10 -22 9 -28 -2z"/>
<path d="M564 423 c-16 -16 -15 -18 10 -26 28 -9 35 -24 11 -24 -8 0 -12 4 -9
9 3 4 -2 8 -10 8 -9 0 -16 -4 -16 -9 0 -6 -53 -9 -127 -8 -86 1 -128 -2 -128
-9 0 -6 -8 -18 -17 -28 -10 -10 -18 -13 -18 -7 0 6 -16 11 -35 11 -25 0 -39
-6 -47 -21 -14 -23 -70 -51 -135 -68 l-43 -12 0 -119 0 -120 240 0 c231 0 269
4 290 32 10 13 58 20 65 8 5 -8 12 -7 24 4 9 9 28 18 42 20 13 2 26 5 29 6 3
2 9 2 13 1 17 -3 127 32 127 40 0 5 11 9 25 9 14 0 25 5 25 11 0 6 12 9 28 8
15 -2 37 2 48 9 12 6 25 8 30 4 5 -4 2 1 -5 11 -12 14 -11 17 3 17 9 0 16 -4
16 -10 0 -5 7 -10 15 -10 8 0 15 4 15 9 0 5 8 17 17 27 13 13 14 19 5 22 -6 2
-12 11 -12 20 1 15 2 15 15 -2 11 -15 17 -17 29 -7 10 8 16 9 21 1 3 -6 11 -8
16 -4 5 3 7 10 3 15 -3 5 0 8 8 7 14 -3 15 51 1 61 -5 3 -8 18 -8 34 1 15 -3
27 -7 27 -4 0 -8 -9 -8 -19 0 -10 -8 -22 -17 -26 -17 -7 -16 -8 2 -15 18 -8
17 -9 -8 -9 -15 -1 -26 4 -25 10 2 6 -3 13 -10 14 -7 2 -8 1 -2 -2 5 -2 8 -9
5 -14 -3 -5 -15 -3 -27 4 -16 9 -22 9 -25 0 -3 -7 -14 -13 -24 -13 -11 0 -17
5 -14 10 4 6 -6 10 -24 10 -16 0 -33 5 -37 11 -7 12 19 43 39 45 6 0 20 2 30
2 10 1 15 7 12 12 -3 6 -1 10 5 10 6 0 8 5 4 11 -4 7 -10 7 -16 1 -6 -6 -17
-8 -24 -5 -8 3 -14 0 -14 -6 0 -6 -5 -11 -12 -11 -6 0 -3 9 7 20 22 24 9 26
-35 4 -27 -14 -34 -14 -41 -3 -8 12 -10 12 -18 0 -6 -9 -30 -15 -67 -16 -33
-1 -60 -7 -62 -14 -4 -13 -72 -15 -72 -2 0 5 -10 13 -21 16 -17 6 -19 9 -8 16
12 8 12 11 -1 19 -21 13 -26 13 -46 -7z"/>
</g>
</svg>
